<?xml version="1.0" encoding="iso-8859-1"?>
<!-- Generator: Adobe Illustrator 19.0.0, SVG Export Plug-In . SVG Version: 6.00 Build 0)  -->
<svg version="1.1" id="Capa_1" xmlns="http://www.w3.org/2000/svg" xmlns:xlink="http://www.w3.org/1999/xlink" x="0px" y="0px"
	 viewBox="0 0 511.999 511.999" style="enable-background:new 0 0 511.999 511.999;" xml:space="preserve">
<polygon style="fill:#57555C;" points="276.907,397.601 259.948,329.768 117.38,338.334 104.704,389.035 "/>
<path style="fill:#4B494F;" d="M322.268,380.253c27.449,0,49.7,22.251,49.7,49.7s-22.251,49.7-49.7,49.7H73.767
	c-27.448,0-49.7-22.251-49.7-49.7c0-27.448,22.251-49.7,49.7-49.7H322.268z"/>
<g>
	<path style="fill:#FEB756;" d="M438.234,98.617H292.841c-2.273,0-4.35,1.284-5.367,3.317l-14.908,29.817l0.004,16.567h-66.271
		V131.75l47.954-79.922c1.084-1.807,3.037-2.913,5.145-2.913h178.837L438.234,98.617z"/>
	<path style="fill:#FEB756;" d="M438.234,98.617l17.147,205.755h40.838V48.915c0-9.15-7.418-16.568-16.568-16.568h-35.417
		c-3.314,0-6,2.686-6,6L438.234,98.617z"/>
</g>
<path style="fill:#FA8043;" d="M479.651,32.347h-20c9.15,0,16.568,7.418,16.568,16.568v255.457h20V48.915
	C496.218,39.765,488.801,32.347,479.651,32.347z"/>
<g>
	<path style="fill:#57555C;" d="M411.102,396.816h43.699c27.448,0,49.699-22.251,49.699-49.699v-43.701c0-3.314-2.686-6-6-6
		l-105.28-0.001c-2.753,0-5.153,1.874-5.821,4.545l-5.284,21.133c-0.947,3.787,1.917,7.455,5.821,7.455h11.166c3.314,0,6,2.686,6,6
		v54.267C405.102,394.131,407.788,396.816,411.102,396.816z"/>
	<path style="fill:#57555C;" d="M338.835,318.983V181.45c0-27.448-22.251-49.699-49.699-49.699H179.168c-3.314,0-6,2.686-6,6v27.133
		h115.968c9.149,0,16.565,7.417,16.565,16.565v138.534L338.835,318.983z"/>
</g>
<circle style="fill:#85828C;" cx="438.23" cy="73.77" r="24.851"/>
<path style="fill:#4B494F;" d="M289.136,131.751h-20c27.448,0,49.699,22.251,49.699,49.699v137.533l-13.134,0.396v0.604l33.134-1
	V181.45C338.835,154.002,316.584,131.751,289.136,131.751z"/>
<path style="fill:#57555C;" d="M40.632,256.5v-27.633c0-3.314,2.686-6,6-6h54.267c3.314,0,6,2.686,6,6V256.5H40.632z"/>
<path style="fill:#4B494F;" d="M100.899,222.867h-20c3.314,0,6,2.686,6,6V256.5h20v-27.633
	C106.899,225.553,104.213,222.867,100.899,222.867z"/>
<path style="fill:#FA8043;" d="M221.209,347.118h128.195c3.314,0,6-2.686,6-6v-21.134c0-3.314-2.686-6-6-6H206.298L221.209,347.118z
	"/>
<path style="fill:#85828C;" d="M189.734,260.5V131.749l-27.131,0.002c-3.313,0-5.999,2.686-6,6l-0.001,122.75L189.734,260.5
	L189.734,260.5z"/>
<path style="fill:#FEB756;" d="M38.878,345.363L9.257,315.743c-1.125-1.125-1.758-2.651-1.758-4.243v-47.217
	c0-9.15,7.418-16.568,16.568-16.568h194.475c2.583,0,4.875,1.653,5.692,4.103l29.133,87.401c1.295,3.885-1.597,7.897-5.692,7.897
	L43.121,347.12C41.529,347.12,40.003,346.488,38.878,345.363z"/>
<path style="fill:#FA8043;" d="M253.368,339.22l-29.133-87.401c-0.817-2.45-3.109-4.103-5.692-4.103h-20
	c2.583,0,4.875,1.653,5.692,4.103l29.133,87.401c1.295,3.885-1.597,7.897-5.692,7.897h20
	C251.771,347.118,254.663,343.105,253.368,339.22z"/>
<g>
	<circle style="fill:#85828C;" cx="73.77" cy="429.95" r="24.849"/>
	<circle style="fill:#85828C;" cx="156.6" cy="429.95" r="24.849"/>
	<circle style="fill:#85828C;" cx="239.44" cy="429.95" r="24.849"/>
	<circle style="fill:#85828C;" cx="322.27" cy="429.95" r="24.849"/>
</g>
<path d="M181.452,281.635h-33.133c-4.142,0-7.5,3.358-7.5,7.5v33.134c0,4.142,3.358,7.5,7.5,7.5h33.133c4.142,0,7.5-3.358,7.5-7.5
	v-33.134C188.952,284.993,185.594,281.635,181.452,281.635z M173.952,314.769h-18.133v-18.134h18.133V314.769z"/>
<path d="M32.35,265.068c-4.142,0-7.5,3.358-7.5,7.5v33.133c0,4.142,3.358,7.5,7.5,7.5s7.5-3.358,7.5-7.5v-33.133
	C39.85,268.426,36.492,265.068,32.35,265.068z"/>
<path d="M57.201,265.068c-4.142,0-7.5,3.358-7.5,7.5v33.133c0,4.142,3.358,7.5,7.5,7.5s7.5-3.358,7.5-7.5v-33.133
	C64.701,268.426,61.343,265.068,57.201,265.068z"/>
<path d="M82.052,265.068c-4.142,0-7.5,3.358-7.5,7.5v33.133c0,4.142,3.358,7.5,7.5,7.5s7.5-3.358,7.5-7.5v-33.133
	C89.552,268.426,86.194,265.068,82.052,265.068z"/>
<path d="M504.5,289.918h-0.782V48.915c0-13.271-10.797-24.068-24.067-24.068h-41.417c-4.143,0-7.5,3.358-7.5,7.5v9.068H317.847
	c-4.143,0-7.5,3.358-7.5,7.5s3.357,7.5,7.5,7.5h93.105c-3.203,5.018-5.068,10.969-5.068,17.351s1.865,12.333,5.068,17.351H289.133
	c-2.841,0-5.438,1.605-6.708,4.146l-14.494,28.988h-48.386l40.701-67.836h27.413c4.143,0,7.5-3.358,7.5-7.5s-3.357-7.5-7.5-7.5H256
	c-2.634,0-5.076,1.382-6.431,3.641l-47.517,79.194h-45.448c-4.142,0-7.5,3.358-7.5,7.5l-0.001,108.467H114.4v-17.35
	c0-4.142-3.358-7.5-7.5-7.5H40.632c-4.142,0-7.5,3.358-7.5,7.5v17.35h-9.065C10.796,240.217,0,251.014,0,264.285v49.702
	c0,1.989,0.79,3.897,2.197,5.304l33.136,33.133c1.407,1.406,3.315,2.196,5.303,2.196l64.942-0.001l-4.534,18.134H73.768
	c-31.54,0-57.2,25.66-57.2,57.2c0,31.541,25.66,57.2,57.2,57.2h248.501c31.54,0,57.199-25.66,57.199-57.2s-25.659-57.2-57.199-57.2
	h-43.843l-4.534-18.135h81.512c4.143,0,7.5-3.358,7.5-7.5v-33.134c0-4.142-3.357-7.5-7.5-7.5h-9.068V181.45
	c0-31.54-25.659-57.199-57.199-57.199H284.7l9.067-18.134h137.566l15.316,183.8h-58.115c-3.441,0-6.441,2.342-7.276,5.681
	l-8.284,33.133c-0.56,2.241-0.057,4.614,1.364,6.435c1.422,1.82,3.603,2.885,5.912,2.885l17.351,0.001v58.767
	c0,4.142,3.357,7.5,7.5,7.5H454.8c31.54,0,57.199-25.66,57.199-57.199v-49.701C512,293.275,508.643,289.918,504.5,289.918z
	 M298.201,306.484h-47.84l-20.379-61.138c-1.021-3.063-3.887-5.128-7.115-5.128h-25.633v-67.833h91.902
	c4.998,0,9.065,4.067,9.065,9.066V306.484z M164.103,139.251h18.131v100.967h-18.132L164.103,139.251z M48.132,230.367h51.267v9.85
	H48.132V230.367z M15,310.88v-46.595c0-5,4.067-9.067,9.067-9.067h193.394l20.331,60.993c0.001,0.005,0.003,0.009,0.005,0.014
	l7.798,23.394L43.742,339.62L15,310.88z M364.468,429.953c0,23.269-18.931,42.2-42.199,42.2H73.768c-23.269,0-42.2-18.931-42.2-42.2
	s18.931-42.2,42.2-42.2h248.501C345.537,387.753,364.468,406.684,364.468,429.953z M262.963,372.753H116.506l4.534-18.134
	L256,354.618h2.429L262.963,372.753z M347.903,339.618h-86.498l-6.044-18.134h92.542V339.618z M331.335,181.45v125.034h-18.134
	V181.45c0-13.27-10.795-24.066-24.065-24.066h-91.902V139.25h9.042c0.005,0,0.01,0.001,0.015,0.001s0.01-0.001,0.015-0.001h66.227
	c0.009,0,0.017,0.001,0.026,0.001c0.007,0,0.014-0.001,0.021-0.001h16.555C312.404,139.251,331.335,158.181,331.335,181.45z
	 M420.884,73.766c0-9.567,7.783-17.351,17.351-17.351c9.567,0,17.351,7.784,17.351,17.351s-7.783,17.351-17.351,17.351
	S420.884,83.333,420.884,73.766z M446.3,105.099c13.948-3.593,24.285-16.278,24.285-31.333c0-15.256-10.619-28.072-24.852-31.464
	v-2.455h33.917c5,0,9.067,4.068,9.067,9.068v241.002H461.7L446.3,105.099z M497,347.118c0,23.268-18.931,42.199-42.199,42.199
	h-42.199V338.05h9.065c4.143,0,7.5-3.358,7.5-7.5s-3.357-7.5-7.5-7.5h-16.565l-15.245-0.001l4.534-18.133l60.373,0.001
	c0.01,0,0.019,0.001,0.029,0.001c0.011,0,0.022-0.001,0.033-0.001h41.393l0,0l0,0H497V347.118z"/>
<path d="M471.369,124.251c-4.143,0-7.5,3.358-7.5,7.5v33.134c0,4.142,3.357,7.5,7.5,7.5s7.5-3.358,7.5-7.5v-33.134
	C478.869,127.608,475.512,124.251,471.369,124.251z"/>
<circle cx="438.23" cy="73.77" r="7.766"/>
<path d="M41.418,429.953c0,17.837,14.512,32.349,32.349,32.349s32.349-14.512,32.349-32.349s-14.512-32.349-32.349-32.349
	C55.93,397.603,41.418,412.115,41.418,429.953z M91.117,429.953c0,9.566-7.783,17.349-17.349,17.349s-17.349-7.783-17.349-17.349
	s7.783-17.349,17.349-17.349C83.334,412.603,91.117,420.385,91.117,429.953z"/>
<path d="M66.268,425.807v8.285c0,4.142,3.358,7.5,7.5,7.5s7.5-3.358,7.5-7.5v-8.285c0-4.142-3.358-7.5-7.5-7.5
	C69.625,418.307,66.268,421.665,66.268,425.807z"/>
<path d="M156.6,462.302c17.837,0,32.349-14.512,32.349-32.349s-14.512-32.349-32.349-32.349s-32.349,14.512-32.349,32.349
	S138.763,462.302,156.6,462.302z M156.6,412.603c9.566,0,17.349,7.783,17.349,17.349s-7.783,17.349-17.349,17.349
	s-17.349-7.783-17.349-17.349S147.034,412.603,156.6,412.603z"/>
<path d="M156.6,441.591c4.142,0,7.5-3.358,7.5-7.5v-8.285c0-4.142-3.358-7.5-7.5-7.5s-7.5,3.358-7.5,7.5v8.285
	C149.1,438.233,152.458,441.591,156.6,441.591z"/>
<path d="M239.436,462.302c17.837,0,32.349-14.512,32.349-32.349s-14.512-32.349-32.349-32.349s-32.349,14.512-32.349,32.349
	S221.599,462.302,239.436,462.302z M239.436,412.603c9.566,0,17.349,7.783,17.349,17.349s-7.783,17.349-17.349,17.349
	s-17.349-7.783-17.349-17.349S229.87,412.603,239.436,412.603z"/>
<path d="M239.436,441.591c4.142,0,7.5-3.358,7.5-7.5v-8.285c0-4.142-3.358-7.5-7.5-7.5s-7.5,3.358-7.5,7.5v8.285
	C231.936,438.233,235.294,441.591,239.436,441.591z"/>
<path d="M322.269,462.302c17.837,0,32.349-14.512,32.349-32.349s-14.512-32.349-32.349-32.349c-17.838,0-32.35,14.512-32.35,32.349
	S304.431,462.302,322.269,462.302z M322.269,412.603c9.566,0,17.349,7.783,17.349,17.349s-7.782,17.349-17.349,17.349
	c-9.566,0-17.35-7.783-17.35-17.349S312.702,412.603,322.269,412.603z"/>
<path d="M322.269,441.591c4.143,0,7.5-3.358,7.5-7.5v-8.285c0-4.142-3.357-7.5-7.5-7.5s-7.5,3.358-7.5,7.5v8.285
	C314.769,438.233,318.126,441.591,322.269,441.591z"/>
<g>
</g>
<g>
</g>
<g>
</g>
<g>
</g>
<g>
</g>
<g>
</g>
<g>
</g>
<g>
</g>
<g>
</g>
<g>
</g>
<g>
</g>
<g>
</g>
<g>
</g>
<g>
</g>
<g>
</g>
</svg>
