<svg height="512pt" viewBox="0 0 512 512.00101" width="512pt" xmlns="http://www.w3.org/2000/svg" fill="white"><path d="m152 376.890625h16v15.109375h-16zm0 0"/><path d="m232 448.890625h16v15.109375h-16zm0 0"/><path d="m280 424.890625h16v15.109375h-16zm0 0"/><path d="m376 456.890625h16v15.109375h-16zm0 0"/><path d="m160.445312 216.445312h15.109376v16h-15.109376zm0 0"/><path d="m344.445312 312.445312h15.109376v16h-15.109376zm0 0"/><path d="m502.191406 496.890625-7.398437-36.996094-24.933594-16.621093-17.191406-34.382813h-29.113281v-104.445313h-15.109376v104.382813l-35.894531-7.175781-31.773437-47.660156-45.222656-13.566407v-223.753906l48.890624 24.445313v123.328124h15.109376v-123.328124l48.890624-24.445313v163.773437h15.109376v-180.667968l-71.554688-35.777344-71.554688 35.777344v236.113281l-23.339843-7h-17.550781v-293.113281l-71.554688-35.777344-71.554688 35.777344v148.667968h15.109376v-131.773437l48.890624 24.445313v123.328124h15.109376v-123.328124l48.890624-24.445313v276.21875h-66.046874l-46.84375 20.796875v-141.242188h-15.109376v147.960938l-13.195312 5.886719-34.804688 43.503906v38.871094l-32 24v28.222656h-16.445312v15.109375h192v-15.109375h-160.445312v-20.667969l26.964843-20.222656h61.480469v-15.109375h-56.445312v-29.792969l26.019531-32.523437 20.136719 13.425781h26.289062v-15.109375h-21.710938l-10.695312-7.128906 58.007812-25.757813h83.242188l-12.398438 30.988282v25.457031h15.109376v-22.546875l12.894531-32.234375 70.773437 21.234375 27.054688 40.582031-17.40625 17.40625h-28.871094v15.109375h35.128906l23.355469-23.351562 36.765625 7.351562h36.078125l11.476563 22.957031-9.933594 9.933594h-36.871094v15.113281h43.128906l13.832032-13.835937 16.242187 10.828125 5.578125 27.894531h-270.78125v15.109375h296v-15.109375zm-103.085937-392.445313-47.105469 23.554688-47.109375-23.554688 47.109375-23.550781zm-184-63.996093-47.105469 23.550781-47.105469-23.550781 47.105469-23.554688zm0 0"/><path d="m184 376.890625h16v15.109375h-16zm0 0"/><path d="m232 416.890625h16v15.109375h-16zm0 0"/><path d="m136 440.890625h16v15.109375h-16zm0 0"/><path d="m160.445312 248.445312h15.109376v16h-15.109376zm0 0"/><path d="m344.445312 280.445312h15.109376v16h-15.109376zm0 0"/><path d="m24 304.890625h16v15.109375h-16zm0 0"/><path d="m40 288.890625h16v15.109375h-16zm0 0"/><path d="m40 320.890625h16v15.109375h-16zm0 0"/><path d="m56 304.890625h16v15.109375h-16zm0 0"/><path d="m32 136.890625h16v15.109375h-16zm0 0"/><path d="m48 120.890625h16v15.109375h-16zm0 0"/><path d="m48 152.890625h16v15.109375h-16zm0 0"/><path d="m64 136.890625h16v15.109375h-16zm0 0"/><path d="m256 16.894531h16v15.109375h-16zm0 0"/><path d="m272 .890625h16v15.113281h-16zm0 0"/><path d="m272 32.890625h16v15.109375h-16zm0 0"/><path d="m288 16.894531h16v15.109375h-16zm0 0"/><path d="m408 48.890625h16v15.109375h-16zm0 0"/><path d="m424 32.890625h16v15.109375h-16zm0 0"/><path d="m424 64.890625h16v15.109375h-16zm0 0"/><path d="m440 48.890625h16v15.109375h-16zm0 0"/><path d="m440 216.890625h16v15.109375h-16zm0 0"/><path d="m456 200.890625h16v15.109375h-16zm0 0"/><path d="m456 232.890625h16v15.109375h-16zm0 0"/><path d="m472 216.890625h16v15.109375h-16zm0 0"/></svg>