<svg height="512pt" viewBox="0 -16 512 512" width="512pt" xmlns="http://www.w3.org/2000/svg"><path d="m8.015625 39.078125h272.53125v352.6875h-272.53125zm0 0" fill="#fff"/><path d="m8.015625 39.078125h272.53125v352.6875h-272.53125zm0 0" fill="#ffd422"/><path d="m40.078125 7.015625h272.53125v352.6875h-272.53125zm0 0" fill="#ffeb99"/><path d="m40.078125 7.015625h24.046875v352.6875h-24.046875zm0 0" fill="#ffd422"/><path d="m104.203125 79.15625h32.0625v80.15625h-32.0625zm0 0" fill="#74e0e3"/><path d="m104.203125 79.15625h16.03125v80.15625h-16.03125zm0 0" fill="#00c9d4"/><path d="m168.328125 111.21875h32.0625v48.09375h-32.0625zm0 0" fill="#74e0e3"/><path d="m168.328125 111.21875h16.03125v48.09375h-16.03125zm0 0" fill="#00c9d4"/><path d="m232.453125 47.09375h32.0625v112.21875h-32.0625zm0 0" fill="#74e0e3"/><path d="m232.453125 47.09375h16.03125v112.21875h-16.03125zm0 0" fill="#00c9d4"/><path d="m344.671875 151.296875h32.0625v320.625h-32.0625zm0 0" fill="#ff866e"/><path d="m344.671875 215.421875h32.0625v16.03125h-32.0625zm0 0" fill="#ff6242"/><path d="m504.984375 231.453125v16.03125c0-17.707031-14.355469-32.0625-32.0625-32.0625h-224.4375c-17.703125 0-32.0625 14.355469-32.0625 32.0625v-16.03125c0-26.5625 21.53125-48.09375 48.09375-48.09375h192.375c26.5625 0 48.09375 21.53125 48.09375 48.09375zm0 0" fill="#adc4d9"/><path d="m312.609375 183.359375h96.1875v32.0625h-96.1875zm0 0" fill="#ff6242"/><path d="m304.59375 352.6875h-257.5v-337.65625h257.5v144.28125h15.03125v-159.3125h-287.5625v32.0625h-32.0625v367.71875h287.5625v-32.0625h32.0625v-128.25h-15.03125zm-32.0625 32.0625h-257.5v-337.65625h17.03125v320.625h240.46875zm0 0"/><path d="m271.53125 159.3125v-119.234375h-47.09375v112.21875h-17.03125v-48.09375h-47.09375v48.09375h-17.03125v-80.15625h-47.09375v80.15625h-16.03125v15.03125h159.3125v-112.21875h17.03125v104.203125zm-143.28125-7.015625h-17.03125v-65.125h17.03125zm64.125 0h-17.03125v-33.0625h17.03125zm0 0"/><path d="m80.15625 216.421875h112.21875v15.03125h-112.21875zm0 0"/><path d="m80.15625 248.484375h112.21875v15.03125h-112.21875zm0 0"/><path d="m80.15625 280.546875h192.375v15.03125h-192.375zm0 0"/><path d="m80.15625 312.609375h192.375v15.03125h-192.375zm0 0"/><path d="m456.890625 176.34375h-73.140625v-32.0625h-47.09375v32.0625h-72.140625c-30.660156 0-56.109375 24.445312-56.109375 55.109375v16.03125h15.53125c0-13.535156 11.011719-24.046875 24.546875-24.046875h88.171875v256.5h47.09375v-256.5h32.0625v-32.0625h41.078125c15.964844 0 29.796875 9.265625 36.417969 22.699219-5.957032-3.59375-12.933594-5.667969-20.386719-5.667969h-40.078125v15.03125h40.078125c13.539063 0 24.550781 10.511719 24.550781 24.046875h14.527344v-16.03125c0-30.664063-24.445312-55.109375-55.109375-55.109375zm-105.203125-17.03125h17.03125v17.03125h-17.03125zm-47.09375 49.09375h-56.109375c-7.449219 0-14.425781 2.074219-20.386719 5.667969 6.625-13.433594 20.457032-22.699219 36.417969-22.699219h40.078125zm64.125 256.5h-17.03125v-241.46875h17.03125zm32.0625-256.5h-81.15625v-17.03125h81.15625zm0 0"/><g fill="#fff"><path d="m80.15625 183.859375h16.03125v15.027344h-16.03125zm0 0"/><path d="m112.21875 183.859375h16.03125v15.027344h-16.03125zm0 0"/><path d="m144.28125 183.859375h16.03125v15.027344h-16.03125zm0 0"/></g></svg>