<svg height="512pt" viewBox="0 -16 512 512" width="512pt" xmlns="http://www.w3.org/2000/svg" fill="white"><path d="m304.59375 352.6875h-257.5v-337.65625h257.5v144.28125h15.03125v-159.3125h-287.5625v32.0625h-32.0625v367.71875h287.5625v-32.0625h32.0625v-128.25h-15.03125zm-32.0625 32.0625h-257.5v-337.65625h17.03125v320.625h240.46875zm0 0"/><path d="m271.53125 159.3125v-119.234375h-47.09375v112.21875h-17.03125v-48.09375h-47.09375v48.09375h-17.03125v-80.15625h-47.09375v80.15625h-16.03125v15.03125h159.3125v-112.21875h17.03125v104.203125zm-96.1875-40.078125h17.03125v33.0625h-17.03125zm-64.125-32.0625h17.03125v65.125h-17.03125zm0 0"/><path d="m80.15625 216.421875h112.21875v15.03125h-112.21875zm0 0"/><path d="m80.15625 248.484375h112.21875v15.03125h-112.21875zm0 0"/><path d="m80.15625 280.546875h192.375v15.03125h-192.375zm0 0"/><path d="m80.15625 312.609375h192.375v15.03125h-192.375zm0 0"/><path d="m456.890625 176.34375h-73.140625v-32.0625h-47.09375v32.0625h-72.140625c-30.660156 0-56.109375 24.445312-56.109375 55.109375v16.03125h15.53125c0-13.535156 11.011719-24.046875 24.546875-24.046875h88.171875v256.5h47.09375v-256.5h32.0625v-32.0625h41.078125c15.964844 0 29.796875 9.265625 36.417969 22.699219-5.957032-3.59375-12.933594-5.667969-20.386719-5.667969h-40.078125v15.03125h40.078125c13.539063 0 24.550781 10.511719 24.550781 24.046875h14.527344v-16.03125c0-30.664063-24.445312-55.109375-55.109375-55.109375zm-105.203125-17.03125h17.03125v17.03125h-17.03125zm-123.589844 54.761719c6.625-13.433594 20.457032-22.699219 36.417969-22.699219h40.078125v17.03125h-56.109375c-7.449219 0-14.425781 2.074219-20.386719 5.667969zm140.621094 250.832031h-17.03125v-241.46875h17.03125zm32.0625-256.5h-81.15625v-17.03125h81.15625zm0 0"/><path d="m80.15625 184.359375h16.03125v15.03125h-16.03125zm0 0"/><path d="m112.21875 184.359375h16.03125v15.03125h-16.03125zm0 0"/><path d="m144.28125 184.359375h16.03125v15.03125h-16.03125zm0 0"/></svg>