<?xml version="1.0" encoding="UTF-8"?>
<svg xmlns="http://www.w3.org/2000/svg" xmlns:xlink="http://www.w3.org/1999/xlink" width="512" height="512" viewBox="0 0 60 51" version="1.1"><!-- Generator: Sketch 51.3 (57544) - http://www.bohemiancoding.com/sketch --><title>015 - Mining Conveyor</title><desc>Created with Sketch.</desc><defs/><g id="Page-1" stroke="none" stroke-width="1" fill="none" fill-rule="evenodd"><g id="015---Mining-Conveyor" fill-rule="nonzero"><path d="M36,13.01 C35.999776,16.0833448 33.990213,18.7952399 31.05,19.69 L29.01,20.32 L2.29,28.5 C1.98819203,28.5914629 1.66092317,28.5351991 1.40698927,28.3481935 C1.15305537,28.1611879 1.00221359,27.8653547 1,27.55 L1,15 C1.00303808,14.7033582 1.13432432,14.4225515 1.36,14.23 C1.463854,14.1454792 1.58254568,14.0810465 1.71,14.04 L26.95,6.31 C29.0735129,5.6622862 31.3783504,6.05938504 33.1626762,7.38037766 C34.9470021,8.70137028 35.9996193,10.7899009 36,13.01 Z" id="Shape" fill="#37474F"/><path d="M33,14.01 C32.9962232,16.7062306 31.4442385,19.1606224 29.01,20.32 L2.29,28.5 C1.98819203,28.5914629 1.66092317,28.5351991 1.40698927,28.3481935 C1.15305537,28.1611879 1.00221359,27.8653547 1,27.55 L1,15 C1.00303808,14.7033582 1.13432432,14.4225515 1.36,14.23 L23.95,7.31 C26.0735129,6.6622862 28.3783504,7.05938504 30.1626762,8.38037766 C31.9470021,9.70137028 32.9996193,11.7899009 33,14.01 Z" id="Shape" fill="#607D8B"/><path d="M30.17,16.83 C29.7551052,16.9544521 29.3229963,17.0118415 28.89,17 C27.1385342,16.9484568 25.6244976,15.7629767 25.1543429,14.0750064 C24.6841881,12.3870361 25.3673735,10.589558 26.84,9.64 C27.1456903,9.43900841 27.4792522,9.28402004 27.83,9.18 C29.9378621,8.54778101 32.1605209,9.73697158 32.8042155,11.8413576 C33.44791,13.9457437 32.2708476,16.174849 30.17,16.83 Z" id="Shape" fill="#545C60"/><path d="M19.65,20.05 C19.2355976,20.1775848 18.8035177,20.238346 18.37,20.23 C16.6163092,20.1778374 15.1007235,18.9903296 14.6305599,17.3000342 C14.1603963,15.6097388 14.8451222,13.810204 16.32,12.86 C16.6278928,12.6629907 16.9608755,12.5082715 17.31,12.4 C18.6792201,11.9730076 20.172253,12.311776 21.2231106,13.2878828 C22.2739682,14.2639896 22.7217876,15.7280145 22.3968066,17.1249661 C22.0718257,18.5219176 21.0237918,19.6379535 19.65,20.05 Z" id="Shape" fill="#545C60"/><path d="M9.14,23.27 C8.7223384,23.3983547 8.28684431,23.4591214 7.85,23.45 C6.09630922,23.3978374 4.58072347,22.2103296 4.11055989,20.5200342 C3.64039632,18.8297388 4.32512218,17.030204 5.8,16.08 C6.10789279,15.8829907 6.44087552,15.7282715 6.79,15.62 C8.90248917,14.9710654 11.1410654,16.1575108 11.79,18.27 C12.4389346,20.3824892 11.2524892,22.6210654 9.14,23.27 Z" id="Shape" fill="#545C60"/><path d="M28.89,17 C27.1385342,16.9484568 25.6244976,15.7629767 25.1543429,14.0750064 C24.6841881,12.3870361 25.3673735,10.589558 26.84,9.64 C28.5914658,9.69154319 30.1055024,10.8770233 30.5756571,12.5649936 C31.0458119,14.2529639 30.3626265,16.050442 28.89,17 Z" id="Shape" fill="#7F8E94"/><path d="M18.37,20.23 C16.6163092,20.1778374 15.1007235,18.9903296 14.6305599,17.3000342 C14.1603963,15.6097388 14.8451222,13.810204 16.32,12.86 C18.0736908,12.9121626 19.5892765,14.0996704 20.0594401,15.7899658 C20.5296037,17.4802612 19.8448778,19.279796 18.37,20.23 Z" id="Shape" fill="#7F8E94"/><path d="M7.85,23.45 C6.09630922,23.3978374 4.58072347,22.2103296 4.11055989,20.5200342 C3.64039632,18.8297388 4.32512218,17.030204 5.8,16.08 C7.55768499,16.1251526 9.07979449,17.3128021 9.55097598,19.006757 C10.0221575,20.7007119 9.331918,22.5037366 7.85,23.45 Z" id="Shape" fill="#7F8E94"/><path d="M58.19,50 L17.08,50 C16.8392023,49.995041 16.6361591,49.8191182 16.5969612,49.5814806 C16.5577632,49.343843 16.6935511,49.1120306 16.92,49.03 L18.04,48.65 C19.2952372,48.230238 20.333908,47.3317338 20.93,46.15 L21.62,44.75 C21.8711955,44.2539047 22.2258315,43.8174297 22.66,43.47 L26.2,40.64 L26.22,40.62 C26.7285302,40.2108395 27.3353091,39.9419261 27.98,39.84 L30.02,39.5 L31.26,39.29 C32.3668929,39.10664 33.3365399,38.4443528 33.91,37.48 L35.51,34.82 C35.8297561,34.2802739 36.2802739,33.8297561 36.82,33.51 L39.14,32.12 C40.2923604,31.4237516 40.9975716,30.1763619 41,28.83 L41,27.91 C41.001725,26.7064612 41.5682039,25.5735033 42.53,24.85 L43.19,24.35 L43.54,24.09 C44.2047932,23.5955438 45.0114857,23.3289845 45.84,23.33 C46.1534113,23.3270643 46.4659219,23.3640279 46.77,23.44 C48.1400782,23.7900849 49.2099151,24.8599218 49.56,26.23 L49.9,27.59 C49.9666867,27.8633901 50.0639671,28.1283952 50.19,28.38 L51.6,31.19 C51.8616031,31.722177 51.9984044,32.3070025 52,32.9 L52,34.41 C51.9980627,35.4263369 52.4011108,36.4015693 53.12,37.12 L54.88,38.88 C55.5988892,39.5984307 56.0019373,40.5736631 56,41.59 L56,43.1 C56.0015956,43.6929975 56.1383969,44.277823 56.4,44.81 L58.64,49.28 C58.7160109,49.4351301 58.7065587,49.6185077 58.6150008,49.7650005 C58.5234428,49.9114932 58.3627509,50.0003461 58.19,50 Z" id="Shape" fill="#F57C00"/><path d="M56,50 L17.58,50 C17.3392023,49.995041 17.1361591,49.8191182 17.0969612,49.5814806 C17.0577632,49.343843 17.1935511,49.1120306 17.42,49.03 L18.54,48.65 C19.7952372,48.230238 20.833908,47.3317338 21.43,46.15 L22.12,44.75 C22.3711955,44.2539047 22.7258315,43.8174297 23.16,43.47 L26.7,40.64 L28.76,40.29 C29.4047246,40.1820143 30.0108206,39.9099598 30.52,39.5 L31.76,39.29 C32.8668929,39.10664 33.8365399,38.4443528 34.41,37.48 L36.01,34.82 C36.3297561,34.2802739 36.7802739,33.8297561 37.32,33.51 L39.64,32.12 C40.7923604,31.4237516 41.4975716,30.1763619 41.5,28.83 L41.5,27.91 C41.501725,26.7064612 42.0682039,25.5735033 43.03,24.85 L43.69,24.35 C43.8859525,24.3595977 44.0803536,24.3897634 44.27,24.44 C45.6400782,24.7900849 46.7099151,25.8599218 47.06,27.23 L47.4,28.59 C47.4666867,28.8633901 47.5639671,29.1283952 47.69,29.38 L49.1,32.19 C49.3616031,32.722177 49.4984044,33.3070025 49.5,33.9 L49.5,35.41 C49.4980627,36.4263369 49.9011108,37.4015693 50.62,38.12 L52.38,39.88 C53.0988892,40.5984307 53.5019373,41.5736631 53.5,42.59 L53.5,44.1 C53.5015956,44.6929975 53.6383969,45.277823 53.9,45.81 L56,50 Z" id="Shape" fill="#FF9801"/><path d="M45,15.56 L45,16 C44.9967052,17.1032019 44.1032019,17.9967052 43,18 L42.56,18 C42.2919402,17.999133 42.0267534,17.9447357 41.78,17.84 C41.77,17.85 41.77,17.84 41.77,17.84 C40.8720352,17.4453138 40.387118,16.4628294 40.62,15.51 L40.71,15.16 C40.8717848,14.539761 41.3164753,14.0320726 41.91,13.79 C41.9913098,13.7573803 42.0748582,13.7306448 42.16,13.71 L42.51,13.62 C43.1081282,13.468852 43.7425375,13.6022013 44.229197,13.9813657 C44.7158565,14.3605301 45.0002942,14.9430697 45,15.56 Z" id="Shape" fill="#D84315"/><path d="M43,15.56 L43,16 C42.9959255,16.801524 42.5167238,17.5242544 41.78,17.84 C41.77,17.85 41.77,17.84 41.77,17.84 C40.8720352,17.4453138 40.387118,16.4628294 40.62,15.51 L40.71,15.16 C40.8717848,14.539761 41.3164753,14.0320726 41.91,13.79 C42.580707,14.1243373 43.0033134,14.810588 43,15.56 Z" id="Shape" fill="#FF5722"/><path d="M29,3.56 L29,4 C28.9967052,5.10320187 28.1032019,5.9967052 27,6 L26.56,6 C26.2919402,5.99913301 26.0267534,5.9447357 25.78,5.84 C25.77,5.85 25.77,5.84 25.77,5.84 C24.8720352,5.44531384 24.387118,4.46282941 24.62,3.51 L24.71,3.16 C24.8717848,2.53976102 25.3164753,2.03207263 25.91,1.79 C25.9913098,1.75738026 26.0748582,1.73064476 26.16,1.71 L26.51,1.62 C27.1081282,1.46885198 27.7425375,1.60220131 28.229197,1.98136573 C28.7158565,2.36053015 29.0002942,2.94306968 29,3.56 Z" id="Shape" fill="#D84315"/><path d="M27,3.56 L27,4 C26.9959255,4.80152398 26.5167238,5.52425441 25.78,5.84 C25.77,5.85 25.77,5.84 25.77,5.84 C24.8720352,5.44531384 24.387118,4.46282941 24.62,3.51 L24.71,3.16 C24.8717848,2.53976102 25.3164753,2.03207263 25.91,1.79 C26.580707,2.12433727 27.0033134,2.81058801 27,3.56 Z" id="Shape" fill="#FF5722"/><path d="M42,4.45 L41,6.45 C40.8289345,6.7895038 40.4801569,7.00264567 40.1,7 L38.5,7 C38.4256113,7.00054216 38.3515275,6.99043983 38.28,6.97 C37.9102344,6.89148853 37.6184746,6.607509 37.53,6.24 L37.03,4.24 C36.9562381,3.94164167 37.0237696,3.62593653 37.2131338,3.38386273 C37.402498,3.14178892 37.692659,3.00023752 38,3 L41.1,3 C41.4483719,2.997567 41.772901,3.17661477 41.9566239,3.47261275 C42.1403468,3.76861073 42.1567797,4.13889064 42,4.45 Z" id="Shape" fill="#F57C00"/><path d="M40,4.45 L39,6.45 C38.8640573,6.73450513 38.5928185,6.93039978 38.28,6.97 C37.9102344,6.89148853 37.6184746,6.607509 37.53,6.24 L37.03,4.24 C36.9562381,3.94164167 37.0237696,3.62593653 37.2131338,3.38386273 C37.402498,3.14178892 37.692659,3.00023752 38,3 L39.1,3 C39.4483719,2.997567 39.772901,3.17661477 39.9566239,3.47261275 C40.1403468,3.76861073 40.1567797,4.13889064 40,4.45 Z" id="Shape" fill="#FF9801"/><path d="M8.77,9.55 L7.93,10.55 L6.77,11.92 C6.5479938,12.1867138 6.20296348,12.3183396 5.85972289,12.2672622 C5.51648231,12.2161847 5.22472748,11.9897992 5.09,11.67 L4.2,9.62 C4.2,9.61 4.19,9.6 4.19,9.59 C4.05414796,9.24945878 4.11554673,8.86187899 4.35,8.58 L5.38,7.36 C5.67735487,7.00838471 6.17445361,6.9015701 6.59,7.1 L8.44,8.01 C8.71650555,8.14458963 8.9157089,8.39891646 8.98014367,8.69961207 C9.04457844,9.00030768 8.9670781,9.31392816 8.77,9.55 Z" id="Shape" fill="#D84315"/><path d="M7.93,10.55 L6.77,11.92 C6.5479938,12.1867138 6.20296348,12.3183396 5.85972289,12.2672622 C5.51648231,12.2161847 5.22472748,11.9897992 5.09,11.67 L4.2,9.62 C4.2,9.61 4.19,9.6 4.19,9.59 L4.38,9.36 C4.67735487,9.00838471 5.17445361,8.9015701 5.59,9.1 L7.44,10.01 C7.67024186,10.1155063 7.84729084,10.3106215 7.93,10.55 Z" id="Shape" fill="#FF5722"/><path d="M26.37,6.49 L23.85,7.26 L8.9999774,11.81 L9,10.32 C8.9989761,10.1059687 9.03274985,9.89319412 9.1,9.69 L9.37,8.87 L9.74,7.79 C9.90747582,7.28667976 10.2668489,6.86980703 10.74,6.63 L10.89,6.55 C10.9277858,6.53212381 10.964513,6.51209078 11,6.49 C11.6195306,6.134466 12.0011307,5.47429778 12,4.76 L12,4.44 C12.0020027,3.57841864 12.5531596,2.81404047 13.37,2.54 L14.07,2.31 C14.6542171,2.11200077 15.2972936,2.19700512 15.81,2.54 L17.26,3.51 C17.732029,3.81965825 18.3108638,3.92095433 18.86,3.79 L21.08,3.23 C21.6625865,3.08280647 22.2804931,3.207859 22.76,3.57 L26.37,6.49 Z" id="Shape" fill="#F57C00"/><path d="M23.85,7.26 L8.9999774,11.81 L9,10.32 C8.9989761,10.1059687 9.03274985,9.89319412 9.1,9.69 L9.37,8.87 C9.48553385,8.77857358 9.60941302,8.69821952 9.74,8.63 L9.89,8.55 C10.5696577,8.21226999 10.9995973,7.51894397 11,6.76 L11,6.44 C10.998277,5.72815194 11.3805245,5.07068614 12,4.72 C12.1138391,4.64218047 12.2385071,4.58153119 12.37,4.54 L13.07,4.31 C13.6542171,4.11200077 14.2972936,4.19700512 14.81,4.54 L16.26,5.51 C16.732029,5.81965825 17.3108638,5.92095433 17.86,5.79 L20.08,5.23 C20.6625865,5.08280647 21.2804931,5.207859 21.76,5.57 L23.85,7.26 Z" id="Shape" fill="#FF9801"/><path d="M28.992,18 C26.4233647,17.9963768 24.2753435,16.0470481 24.0232005,13.4908156 C23.7710575,10.9345831 25.4968306,8.60314912 28.0152564,8.09774582 C30.5336821,7.59234252 33.0253591,9.07740923 33.779,11.533 C34.2410758,13.0502665 33.9571002,14.6967322 33.0134578,15.9715463 C32.0698155,17.2463603 30.5780676,17.9988093 28.992,18 Z M28.992,10 C27.6972757,10.0010168 26.5492755,10.8325368 26.1446336,12.0624056 C25.7399918,13.2922743 26.1700123,14.6429824 27.2112066,15.412545 C28.2524008,16.1821076 29.6698323,16.1968794 30.7268388,15.4491834 C31.7838452,14.7014874 32.2419224,13.3600347 31.863,12.122 C31.4754649,10.8646392 30.315718,10.0050574 29,10 L28.992,10 Z" id="Shape" fill="#000000"/><circle id="Oval" fill="#000000" cx="28.998" cy="13.002" r="1"/><path d="M18.483,21.226 C16.0054162,21.2293273 13.8990339,19.4177444 13.5315812,16.9675585 C13.1641284,14.5173725 14.6464344,12.1675965 17.016,11.444 C19.6561855,10.6353015 22.452084,12.1198811 23.261,14.76 C23.7258735,16.2758343 23.4442484,17.9223173 22.5019871,19.1974662 C21.5597258,20.4726151 20.0685158,21.2252848 18.483,21.226 Z M18.483,13.226 C18.1837301,13.2267007 17.8861983,13.2715158 17.6,13.359 C16.0157797,13.8441848 15.124834,15.5217676 15.6100156,17.1059889 C16.0951972,18.6902101 17.7727782,19.5811592 19.3570005,19.0959809 C20.9412227,18.6108025 21.8321752,16.9332232 21.347,15.349 C20.9619348,14.0893214 19.800217,13.2281737 18.483,13.226 Z" id="Shape" fill="#000000"/><circle id="Oval" fill="#000000" cx="18.481" cy="16.225" r="1"/><path d="M7.967,24.448 C5.34934843,24.4488227 3.17413776,22.430555 2.97929843,19.8201646 C2.78445909,17.2097742 4.63594985,14.8909538 7.22471865,14.5031697 C9.81348745,14.1153856 12.2631611,15.7899139 12.8417567,18.3428196 C13.4203522,20.8957253 11.9319984,23.4627759 9.429,24.229 C8.95517725,24.3738932 8.46248153,24.4476965 7.967,24.448 Z M7.967,16.448 C7.01579818,16.448424 6.12115778,16.8999194 5.55578296,17.6648615 C4.99040813,18.4298036 4.82129774,19.417544 5.1,20.327 C5.55182196,21.8013769 7.04780612,22.693081 8.55961273,22.3891548 C10.0714193,22.0852286 11.1065793,20.6846756 10.9535235,19.1502361 C10.8004676,17.6157967 9.50905379,16.4473126 7.967,16.448 Z" id="Shape" fill="#000000"/><circle id="Oval" fill="#000000" cx="7.964" cy="19.448" r="1"/><path d="M1.994,29.549 C0.89177437,29.5456933 -4.96004878e-06,28.6512306 1.11854089e-15,27.549 L1.11854089e-15,15 C-0.0041471947,14.1192973 0.571660824,13.3408374 1.415,13.087 L26.657,5.354 C29.4167692,4.42039375 32.4658859,5.06089635 34.6167396,7.02603631 C36.7675933,8.99117627 37.6800867,11.9702218 36.9988097,14.8028545 C36.3175328,17.6354873 34.1502103,19.8738058 31.341,20.646 L2.586,29.46 C2.39420235,29.518993 2.19466518,29.548991 1.994,29.549 Z M29.007,7 C28.4090403,7.00040434 27.8144899,7.09005877 27.243,7.266 L2,15 L2,27.547 L30.757,18.734 C33.5911251,17.8608174 35.3621833,15.0480773 34.9247359,12.1149301 C34.4872885,9.18178296 31.9725767,7.00821936 29.007,7 Z" id="Shape" fill="#000000"/><path d="M58.191,51 L17.081,51 C16.3454101,50.9997958 15.7185048,50.4662116 15.6007581,49.7401068 C15.4830114,49.014002 15.9091703,48.3096506 16.607,48.077 L17.719,47.706 C18.7268627,47.3728952 19.5596843,46.6506124 20.032,45.7 L20.732,44.3 C21.0449016,43.676059 21.4882454,43.1266537 22.032,42.689 L25.6,39.842 C26.2442232,39.3270787 27.0094979,38.9855796 27.823,38.85 L31.094,38.304 C31.9121589,38.1683291 32.629478,37.680245 33.056,36.969 L34.656,34.307 C35.0639739,33.627048 35.633048,33.0579739 36.313,32.65 L38.632,31.258 C39.4801457,30.7435027 39.9986472,29.8239964 40,28.832 L40,27.915 C40.0036796,26.3953619 40.7191186,24.965224 41.933,24.051 L42.941,23.294 C44.1041037,22.4198212 45.5999619,22.1180768 47.011,22.473 L47.044,22.481 C48.7611483,22.9206714 50.0986398,24.2669951 50.527,25.987 L50.868,27.351 C50.9184352,27.5512327 50.9905269,27.7453772 51.083,27.93 L52.49,30.745 C52.8237454,31.4144523 52.9982854,32.1519697 53,32.9 L53,34.41 C52.9978884,35.1606768 53.2964395,35.8809449 53.829,36.41 L55.585,38.167 C56.4946401,39.0717615 57.0042161,40.3030266 57,41.586 L57,43.1 C57.0012663,43.5394607 57.10393,43.9727013 57.3,44.366 L59.534,48.833 C59.7647866,49.2978755 59.7388598,49.8490227 59.4654522,50.2901801 C59.1920445,50.7313375 58.7100102,50.9998117 58.191,51 Z M19.637,49 L57.383,49 L55.51,45.256 C55.1761047,44.5862452 55.0015605,43.8483683 55,43.1 L55,41.59 C55.0021116,40.8393232 54.7035605,40.1190551 54.171,39.59 L52.415,37.833 C51.5053599,36.9282385 50.9957839,35.6969734 51,34.414 L51,32.9 C50.9987337,32.4605393 50.89607,32.0272987 50.7,31.634 L49.293,28.819 C49.1355083,28.503228 49.0127883,28.1712805 48.927,27.829 L48.587,26.468 C48.3337243,25.453646 47.5414769,24.6617831 46.527,24.409 L46.501,24.402 C45.6809489,24.2029767 44.8148665,24.3820649 44.141,24.89 L43.131,25.647 C42.4193739,26.1839552 42.0007008,27.0235225 42,27.915 L42,28.832 C41.9952099,30.5271552 41.1062491,32.0969577 39.655,32.973 L37.336,34.365 C36.9377277,34.604301 36.604301,34.9377277 36.365,35.336 L34.768,38 C34.0400589,39.2141878 32.8156116,40.0474262 31.419,40.279 L28.148,40.824 C27.6722512,40.9043799 27.2248372,41.1046837 26.848,41.406 L23.283,44.257 C22.964372,44.5135105 22.7045186,44.8354287 22.521,45.201 L21.821,46.601 C21.3286179,47.5870831 20.572656,48.4174644 19.637,49 Z" id="Shape" fill="#000000"/><path d="M43,19 L42.562,19 C41.6380052,19.0002066 40.7654645,18.5746139 40.1967946,17.8463413 C39.6281246,17.1180688 39.4267772,16.1683764 39.651,15.272 L39.739,14.921 C40.0078384,13.8466761 40.8466761,13.0078384 41.921,12.739 L42.272,12.651 C43.1683764,12.4267772 44.1180688,12.6281246 44.8463413,13.1967946 C45.5746139,13.7654645 46.0002066,14.6380052 46,15.562 L46,16 C46,17.6568542 44.6568542,19 43,19 Z M43,14.561 C42.917754,14.5611164 42.8358246,14.5711897 42.756,14.591 L42.405,14.679 C42.04646,14.7685115 41.7665115,15.04846 41.677,15.407 L41.589,15.758 C41.514386,16.0571528 41.5819383,16.3739983 41.772078,16.616705 C41.9622178,16.8594116 42.2536837,17.0008401 42.562,17 L43,17 C43.5522847,17 44,16.5522847 44,16 L44,15.562 C44,15.0097153 43.5522847,14.562 43,14.562 L43,14.561 Z" id="Shape" fill="#000000"/><path d="M27,7 L26.562,7 C25.6380052,7.00020661 24.7654645,6.57461393 24.1967946,5.84634134 C23.6281246,5.11806875 23.4267772,4.16837638 23.651,3.272 L23.739,2.921 C24.0078384,1.84667614 24.8466761,1.00783844 25.921,0.739 L26.272,0.651 C27.1683764,0.42677723 28.1180688,0.628124629 28.8463413,1.19679456 C29.5746139,1.7654645 30.0002066,2.63800519 30,3.562 L30,4 C30,5.65685425 28.6568542,7 27,7 Z M27,2.561 C26.917754,2.56111643 26.8358246,2.57118972 26.756,2.591 L26.405,2.679 C26.04646,2.76851151 25.7665115,3.04845995 25.677,3.407 L25.589,3.758 C25.514386,4.05715278 25.5819383,4.37399833 25.772078,4.61670497 C25.9622178,4.8594116 26.2536837,5.00084007 26.562,5 L27,5 C27.5522847,5 28,4.55228475 28,4 L28,3.562 C28,3.00971525 27.5522847,2.562 27,2.562 L27,2.561 Z" id="Shape" fill="#000000"/><path d="M40.1,8 L38.5,8 C37.5823502,7.99986106 36.7825301,7.37525923 36.56,6.485 L36.06,4.485 C35.9106674,3.88757634 36.0448755,3.2546682 36.4238213,2.76926596 C36.8027672,2.28386373 37.3841954,2.00009323 38,2 L41.1,2 C41.7951442,1.99828091 42.4413199,2.35763793 42.8065883,2.94908308 C43.1718566,3.54052823 43.203818,4.27921559 42.891,4.9 L41.891,6.9 C41.5519372,7.57758309 40.8576718,8.00398845 40.1,8 Z M40.1,6 L41.1,4 L38,4 L38.5,6 L40.1,6 Z" id="Shape" fill="#000000"/><path d="M6.009,13.279 C5.91027359,13.2785642 5.81169898,13.2712128 5.714,13.257 C5.02703936,13.1592011 4.44093424,12.7099549 4.168,12.072 L3.281,10.02 C2.97606608,9.32553732 3.09240837,8.51812183 3.581,7.938 L4.611,6.713 C5.20176374,6.01023203 6.19512396,5.79993161 7.02,6.203 L8.872,7.103 C9.42525096,7.37328293 9.82316377,7.88334043 9.95071214,8.4857281 C10.0782605,9.08811578 9.9212248,9.71567697 9.525,10.187 L7.535,12.565 C7.15748834,13.0176557 6.59841681,13.2792396 6.009,13.279 Z M4.352,8.579 L5.117,9.223 L6,11.278 L8,8.9 L6.147,8 L5.117,9.226 L4.352,8.579 Z" id="Shape" fill="#000000"/><path d="M9,12.81 C8.44771525,12.81 8,12.3622847 8,11.81 L8,10.32 C7.99890087,9.99817331 8.05023998,9.67831709 8.152,9.373 L8.792,7.473 C9.04207089,6.72153016 9.57860165,6.09911135 10.285,5.741 L10.419,5.67 C10.7723151,5.50450648 10.9985576,5.15015072 11,4.76 L11,4.44 C11.003095,3.15106379 11.8260022,2.00695347 13.047,1.594 L13.758,1.36 C14.6333482,1.0626844 15.5973386,1.19141374 16.364,1.708 L17.816,2.679 C18.0571927,2.83399832 18.351198,2.88384196 18.63,2.817 L20.835,2.26 C21.7104132,2.03655404 22.6399391,2.22429987 23.36,2.77 L27,5.713 C27.4294014,6.06038711 27.4958871,6.6900986 27.1485,7.11949998 C26.8011129,7.54890137 26.1714014,7.61538709 25.742,7.268 L22.132,4.347 C21.9000112,4.18259778 21.6076201,4.12813993 21.332,4.198 L19.1,4.76 C18.2785402,4.95609446 17.4125922,4.80604502 16.705,4.345 L15.25,3.371 C14.9961481,3.19971493 14.6766211,3.15750627 14.387,3.257 L13.678,3.49 C13.2716222,3.62920893 12.9979355,4.0104441 12.996,4.44 L12.996,4.76 C12.9989382,5.89861616 12.3538662,6.93973057 11.333,7.444 L11.207,7.512 C10.9608285,7.63256963 10.7729377,7.84637641 10.685,8.106 L10.044,10.006 C10.012139,10.1075288 9.99727207,10.2136243 10,10.32 L10,11.81 C10,12.3622847 9.55228475,12.81 9,12.81 Z" id="Shape" fill="#000000"/><path d="M29,46 C28.5315708,46.0057459 28.1219358,45.6855323 28.014425,45.2295714 C27.9069142,44.7736104 28.1303467,44.3041262 28.552,44.1 L31.5,42.632 C32.3316159,42.2176013 33.2478554,42.0012908 34.177,42 C35.5780411,41.9976406 36.8760481,41.2635063 37.6,40.064 L39.148,37.485 C39.3286127,37.1717721 39.664242,36.9804363 40.0257878,36.9845899 C40.3873337,36.9887436 40.7184786,37.1877396 40.8918476,37.5050342 C41.0652165,37.8223288 41.0538041,38.2084974 40.862,38.515 L39.31,41.094 C38.2237071,42.8924042 36.2780124,43.9939411 34.177,44 C33.5584723,44.0009512 32.9485575,44.1450444 32.395,44.421 L29.447,45.9 C29.3077438,45.9674687 29.1547301,46.0016999 29,46 Z" id="Shape" fill="#000000"/><path d="M49,51 C48.6653673,51.0003846 48.3527211,50.8333647 48.167,50.555 L47.185,49.081 C46.4107612,47.9226382 45.9982963,46.5602856 46,45.167 C46.0006016,44.5236046 45.8777121,43.8860729 45.638,43.289 L44.071,39.372 C43.8655501,38.8589275 44.1149275,38.2764499 44.628,38.071 C45.1410725,37.8655501 45.7235501,38.1149275 45.929,38.628 L47.5,42.545 C47.8325385,43.379062 48.0022622,44.2690934 48,45.167 C47.999954,46.163891 48.2957777,47.138369 48.85,47.967 L49.832,49.441 C50.0389623,49.7479851 50.0593774,50.1441965 49.8850626,50.4708272 C49.7107479,50.7974579 49.3702326,51.0010496 49,51 Z" id="Shape" fill="#000000"/></g></g></svg>
