<?xml version="1.0" encoding="UTF-8"?>
<svg xmlns="http://www.w3.org/2000/svg" xmlns:xlink="http://www.w3.org/1999/xlink" width="512" height="512" viewBox="0 0 60 60" version="1.1"><!-- Generator: Sketch 51.3 (57544) - http://www.bohemiancoding.com/sketch --><title>010 Panning</title><desc>Created with Sketch.</desc><defs/><g id="Page-1" stroke="none" stroke-width="1" fill="none" fill-rule="evenodd"><g id="010-Panning" transform="translate(-1.000000, 0.000000)" fill="#000000" fill-rule="nonzero"><path d="M31,0 C16.457,0 1,3.505 1,10 L1,14 C1,15.674 2.083,17.274 4,18.711 L4,26 C4,31.252 17.583,34 31,34 C44.417,34 58,31.252 58,26 L58,18.711 C59.917,17.274 61,15.674 61,14 L61,10 C61,3.505 45.543,0 31,0 Z M31,2 C47.5,2 59,6.216 59,10 C59,11.669 56.759,13.422 52.84,14.861 C50.7521059,13.3305618 48.3680387,12.2522823 45.84,11.695 C45.937862,11.0582067 45.8482142,10.4066964 45.582,9.82 L45.082,8.738 C44.491736,7.50072828 43.2408487,6.71483456 41.87,6.72 L39.82,6.72 C38.7922662,6.71725453 37.8113731,7.14957409 37.12,7.91 C36.5706833,8.52561276 36.2639595,9.319967 36.257,10.145 L36.14,10.182 C32.5151597,9.93193063 28.8767029,9.95298922 25.255,10.245 C24.9729084,8.90413992 23.7851733,7.94767862 22.415,7.958 L22.4,7.958 L20.847,7.967 C19.6991397,7.97620541 18.661765,8.65307678 18.191,9.7 L17.809,10.555 C17.6985235,10.8099642 17.6247884,11.0793162 17.59,11.355 C14.683,12 11.223,13.1 9.166,14.863 C5.243,13.424 3,11.67 3,10 C3,6.216 14.5,2 31,2 Z M23.229,12.036 C23.2045848,12.2813497 23.0830202,12.5067321 22.8914077,12.6619006 C22.6997953,12.8170691 22.4540651,12.8891235 22.209,12.862 L20.384,12.671 C20.0887801,12.6398172 19.8263523,12.4691307 19.6781521,12.2119074 C19.5299519,11.954684 19.5139083,11.6420423 19.635,11.371 L20.017,10.517 C20.1653801,10.1853365 20.4936688,9.97077644 20.857,9.968 L22.411,9.959 C22.6737341,9.95872102 22.9242459,10.0699442 23.100248,10.2650147 C23.2762501,10.4600853 23.3612089,10.7206785 23.334,10.982 L23.229,12.036 Z M18.021,13.314 C18.492784,14.0715291 19.2882844,14.5683939 20.176,14.66 L22,14.851 C22.1016394,14.8618148 22.2037869,14.8671558 22.306,14.867 C23.7994523,14.8635311 25.0514804,13.7376963 25.213,12.253 C27.906531,12.0239733 30.6111982,11.9535184 33.313,12.042 C33.1739106,12.30905 33.0799748,12.5972773 33.035,12.895 L32.906,13.788 C32.7782244,14.6484202 33.0871605,15.5159907 33.73,16.102 C34.3038949,16.6242299 35.0541037,16.9100237 35.83,16.902 C36.0731412,16.9017712 36.3155467,16.8752843 36.553,16.823 L38.5,16.4 C39.3777297,16.2134847 40.1359584,15.6651488 40.588,14.89 L42.699,14.671 C43.5702144,14.5827137 44.3793804,14.1799083 44.975,13.538 C46.9002065,13.9732924 48.7553747,14.6747022 50.487,15.622 C44.1295576,17.2964237 37.5735428,18.0964546 31,18 C24.4266308,18.0979339 17.8705955,17.2992462 11.513,15.626 C13.5551572,14.535686 15.7486776,13.7564267 18.021,13.314 Z M43.71,11.914 C43.45353,12.3515981 43.0012262,12.6381068 42.496,12.683 L40.885,12.85 L40.7,12 C40.5329278,11.2493753 40.0529292,10.6059808 39.381,10.232 C39.0404848,10.0422 38.6673492,9.91804761 38.281,9.866 C38.3357815,9.63671021 38.4467865,9.42466653 38.604,9.249 C38.9156998,8.90887272 39.3566581,8.71636212 39.818,8.719 L41.868,8.719 C42.4615204,8.71149474 43.0063836,9.04619641 43.268,9.579 L43.768,10.657 C43.9609891,11.0601913 43.9392137,11.5332434 43.71,11.917 L43.71,11.914 Z M37.38,11.882 C37.5153085,11.8380262 37.6567255,11.8157505 37.799,11.816 C38.0027663,11.813838 38.2036196,11.864482 38.382,11.963 C38.5629404,12.0586756 38.6948499,12.2265605 38.745,12.425 L38.959,13.407 C39.059,13.845 38.649,14.321 38.075,14.447 L36.135,14.87 C35.7721537,14.9646474 35.3859405,14.877414 35.099,14.636 C34.9357137,14.4969008 34.8565436,14.2828766 34.89,14.071 L35.02,13.178 C35.1099682,12.7963384 35.4029247,12.4953083 35.782,12.395 L37.38,11.882 Z M56,26 C56,28.5 46.489,32 31,32 C15.511,32 6,28.5 6,26 L6,19.985 C11.427,22.98 20.7,25 31,25 C41.3,25 50.573,22.98 56,19.985 L56,26 Z M56.615,17.258 C56.490023,17.3111638 56.3770916,17.3890592 56.283,17.487 C51.788,20.442 42.179,23 31,23 C19.821,23 10.212,20.442 5.717,17.487 C5.62290835,17.3890592 5.50997702,17.3111638 5.385,17.258 C3.855,16.182 3,15.063 3,14 L3,13.783 C7.635,17.845 19.6,20 31,20 C42.4,20 54.365,17.845 59,13.783 L59,14 C59,15.063 58.145,16.182 56.615,17.258 Z" id="Shape"/><path d="M5.837,52.833 L2.6,56.72 C2.10359486,57.3159764 1.99653538,58.1452273 2.32530106,58.8477364 C2.65406674,59.5502455 3.35936773,59.9993216 4.135,60 L58.612,60 C59.2554844,60.0009059 59.8601004,59.6921423 60.236645,59.1703308 C60.6131896,58.6485193 60.7156637,57.9774049 60.512,57.367 L59.95,55.684 C59.93589,55.6389773 59.9181657,55.5951681 59.897,55.553 L58.197,52.153 C57.9059359,51.5731057 57.4356771,51.1024963 56.856,50.811 L54.049,49.411 C53.8555854,49.3142542 53.6987458,49.1574146 53.602,48.964 L52.27,46.301 C51.9147618,45.5896963 51.2901762,45.0497087 50.535,44.801 L40.1,41.313 C39.3452302,41.0590367 38.520211,41.1177351 37.809,41.476 L31.444,44.658 C31.1625892,44.7986214 30.8314108,44.7986214 30.55,44.658 L24.228,41.5 C23.4801636,41.1267119 22.6108128,41.081071 21.828,41.374 L15.728,43.663 C14.7279823,44.0417839 14.0044819,44.923312 13.828,45.978 L13.228,49.592 C13.1636712,49.9731176 12.8870816,50.2838924 12.516,50.392 L7.318,51.869 C6.73848474,52.033783 6.2222684,52.3697942 5.837,52.833 Z M7.867,53.792 L13.059,52.309 C14.1710401,51.9879398 15.0008592,51.0582315 15.194,49.917 L15.794,46.303 C15.8528279,45.9505107 16.0952866,45.6562054 16.43,45.531 L22.53,43.242 C22.6419656,43.2002573 22.7605063,43.1789199 22.88,43.179 C23.0355881,43.1786386 23.1890709,43.2149537 23.328,43.285 L29.653,46.447 C30.4983683,46.8670269 31.4916317,46.8670269 32.337,46.447 L38.701,43.265 C38.9381082,43.1452289 39.2134023,43.125771 39.465,43.211 L49.9,46.687 C50.1516421,46.7703375 50.3598993,46.9501796 50.479,47.187 L51.811,49.85 C52.1020641,50.4298943 52.5723229,50.9005037 53.152,51.192 L55.959,52.592 C56.1524146,52.6887458 56.3092542,52.8455854 56.406,53.039 L58.077,56.38 L58.612,58 L4.131,58.006 L4.136,58 L7.374,54.113 C7.50243039,53.9589888 7.67419825,53.847148 7.867,53.792 Z" id="Shape"/><path d="M19.553,53.9 C19.7903497,54.0186659 20.0651326,54.0381283 20.3168386,53.9541012 C20.5685446,53.8700742 20.7765321,53.6894485 20.895,53.452 L21.41,52.421 C22.0559722,51.1298687 23.5299607,50.4819525 24.918,50.879 L28.726,51.966 C29.0741611,52.079531 29.4565315,51.9936754 29.7227353,51.7421978 C29.9889391,51.4907203 30.0963926,51.1138488 30.0028372,50.7597968 C29.9092817,50.4057449 29.6296831,50.1311488 29.274,50.044 L25.467,48.956 C23.1535584,48.2947734 20.697234,49.3750351 19.621,51.527 L19.105,52.558 C18.9863341,52.7953497 18.9668717,53.0701326 19.0508988,53.3218386 C19.1349258,53.5735446 19.3155515,53.7815321 19.553,53.9 Z" id="Shape"/><path d="M37.982,50.944 L39.607,50.044 C40.5300418,49.5370344 41.6507933,49.5487879 42.563,50.075 L45.498,51.775 C45.9739933,52.0311528 46.5673836,51.8626904 46.8377768,51.3946397 C47.10817,50.926589 46.9576821,50.3283876 46.498,50.044 L43.562,48.344 C42.0413556,47.4684038 40.1741043,47.4494507 38.636,48.294 L37.01,49.194 C36.6932179,49.3647396 36.4926059,49.6925216 36.4846959,50.0522998 C36.4767859,50.4120779 36.6627981,50.7483602 36.97177,50.9328574 C37.280742,51.1173545 37.6650182,51.1216099 37.978,50.944 L37.982,50.944 Z" id="Shape"/><path d="M32.493,55.5 C33.670564,54.8271329 35.1281526,54.881807 36.252,55.641 L36.529,55.827 C36.8258877,56.0259969 37.2063869,56.05149 37.5271671,55.8938761 C37.8479474,55.7362623 38.0602746,55.4194869 38.0841671,55.0628761 C38.1080597,54.7062654 37.9398877,54.3639969 37.643,54.165 L37.366,53.979 C35.6142558,52.7953359 33.3418617,52.7107853 31.507,53.761 C31.1846086,53.9310789 30.9802957,54.2631028 30.9737644,54.6275481 C30.9672331,54.9919933 31.1595181,55.3311248 31.4756083,55.512646 C31.7916986,55.6941673 32.1815193,55.6893219 32.493,55.5 Z" id="Shape"/><path d="M50.046,41 C51.0415273,41.0001663 51.9722948,40.5064704 52.5305104,39.6821706 C53.088726,38.8578709 53.2016725,37.8103468 52.832,36.886 L52.432,35.886 C51.9793398,34.7443897 50.8740719,33.9961717 49.646,34 L49,34 C47.3431458,34 46,35.3431458 46,37 L46,38 C46,39.6568542 47.3431458,41 49,41 L50.046,41 Z M48,38 L48,37 C48,36.4477153 48.4477153,36 49,36 L49.646,36 C50.0553399,35.9985843 50.4236906,36.248253 50.574,36.629 L50.974,37.629 C51.0970375,37.9369694 51.0593903,38.2859033 50.8734939,38.5605411 C50.6875976,38.8351789 50.3776373,38.9997901 50.046,39 L49,39 C48.4477153,39 48,38.5522847 48,38 Z" id="Shape"/><path d="M28.8,41.509 L30.084,42.134 C30.6801659,42.4249361 31.3675202,42.4670019 31.9947144,42.2509349 C32.6219087,42.034868 33.1375142,41.5783854 33.428,40.982 L33.788,40.241 C34.0995707,39.6027502 34.1249624,38.8621023 33.8578342,38.204013 C33.590706,37.5459236 33.0562747,37.0325161 32.388,36.792 L31.249,36.384 C30.3243945,36.0529736 29.2916219,36.2939539 28.609,37 L28.103,37.523 C27.5398885,38.0946405 27.2899746,38.9044361 27.433,39.694 C27.5715257,40.4830869 28.0798367,41.157984 28.8,41.509 Z M29.537,38.909 L30.044,38.386 C30.1805691,38.2448613 30.3871176,38.1967449 30.572,38.263 L31.711,38.671 C31.845354,38.7177602 31.9526847,38.8207101 32.005,38.953 C32.0582828,39.0849388 32.0528272,39.2333299 31.99,39.361 L31.63,40.102 C31.5718678,40.2214261 31.4686063,40.3128143 31.343,40.356 C31.2178295,40.4005462 31.0799214,40.3922429 30.961,40.333 L29.677,39.707 C29.5321618,39.6368176 29.4299629,39.5012047 29.4024113,39.3426342 C29.3748596,39.1840637 29.4253243,39.0219255 29.538,38.907 L29.537,38.909 Z" id="Shape"/><path d="M14.713,40.883 C14.9107018,40.8832073 15.1077352,40.8600466 15.3,40.814 L16.69,40.484 C17.3353072,40.3312959 17.8935076,39.9284668 18.2417735,39.3641523 C18.5900394,38.7998379 18.6998347,38.1202763 18.547,37.475 L18.355,36.675 C18.1909855,35.9837739 17.7406369,35.39497 17.1164685,35.0556941 C16.4923001,34.7164182 15.7532641,34.6587147 15.084,34.897 L13.945,35.303 C13.0220223,35.6323129 12.3765582,36.4705171 12.294,37.447 L12.232,38.174 C12.1727904,38.8696453 12.4071669,39.5583579 12.8784149,40.0734827 C13.3496629,40.5886075 14.014845,40.8832092 14.713,40.886 L14.713,40.883 Z M14.286,37.613 C14.3025694,37.4174286 14.4320292,37.2496393 14.617,37.184 L15.756,36.777 C15.8900238,36.7294388 16.0379595,36.7411993 16.1627855,36.8093382 C16.2876116,36.8774772 16.377516,36.995547 16.41,37.134 L16.601,37.934 C16.6634848,38.2023323 16.497129,38.4706482 16.229,38.534 L14.839,38.864 C14.6830646,38.9011009 14.5187949,38.8611927 14.3972628,38.756683 C14.2757307,38.6521733 14.211671,38.4957331 14.225,38.336 L14.286,37.613 Z" id="Shape"/><circle id="Oval" cx="41" cy="37" r="1"/><circle id="Oval" cx="55" cy="42" r="1"/><circle id="Oval" cx="9" cy="42" r="1"/><circle id="Oval" cx="23" cy="37" r="1"/><circle id="Oval" cx="22" cy="29" r="1"/><circle id="Oval" cx="28" cy="15" r="1"/><path d="M4.684,31.051 L1.684,32.051 C1.1593295,32.225522 0.875478051,32.7923295 1.05000003,33.317 C1.22452201,33.8416705 1.79132949,34.125522 2.316,33.951 L5.316,32.951 C5.8406705,32.776478 6.12452195,32.2096705 5.94999997,31.685 C5.77547799,31.1603295 5.20867051,30.876478 4.684,31.051 Z" id="Shape"/><path d="M6.293,34.293 L4.293,36.293 C4.03304342,36.5440745 3.9287874,36.9158779 4.02030284,37.2655073 C4.11181828,37.6151368 4.38486324,37.8881817 4.73449268,37.9796972 C5.08412211,38.0712126 5.45592553,37.9669566 5.707,37.707 L7.707,35.707 C8.08597221,35.3146211 8.08055237,34.6909152 7.69481858,34.3051814 C7.30908478,33.9194476 6.68537889,33.9140278 6.293,34.293 Z" id="Shape"/><path d="M59.684,33.949 C60.2086705,34.123522 60.775478,33.8396705 60.95,33.315 C61.1245219,32.7903295 60.8406705,32.223522 60.316,32.049 L57.316,31.049 C56.7913295,30.874478 56.224522,31.1583295 56.05,31.683 C55.875478,32.2076705 56.1593295,32.774478 56.684,32.949 L59.684,33.949 Z" id="Shape"/><path d="M54.293,34.293 C53.9026181,34.6834999 53.9026181,35.3165001 54.293,35.707 L56.293,37.707 C56.6853789,38.0859722 57.3090848,38.0805524 57.6948186,37.6948186 C58.0805524,37.3090848 58.0859722,36.6853789 57.707,36.293 L55.707,34.293 C55.3165001,33.9026181 54.6834999,33.9026181 54.293,34.293 Z" id="Shape"/><path d="M18.164,27.014 C14.8175866,26.3728489 11.545788,25.390036 8.4,24.081 C7.89245032,23.8628475 7.3041525,24.0974503 7.08600003,24.605 C6.86784756,25.1125497 7.10245033,25.7008475 7.61,25.919 C10.9034885,27.2968802 14.3326511,28.3248581 17.841,28.986 C17.8934989,28.9952294 17.9466961,28.9999134 18,29 C18.5191427,28.9980767 18.9504782,28.5992128 18.9929441,28.0818063 C19.03541,27.5643999 18.6748817,27.1005441 18.163,27.014 L18.164,27.014 Z" id="Shape"/></g></g></svg>
