<?xml version="1.0" encoding="UTF-8"?>
<svg xmlns="http://www.w3.org/2000/svg" xmlns:xlink="http://www.w3.org/1999/xlink" width="512" height="512" viewBox="0 0 60 60" version="1.1"><!-- Generator: Sketch 51.3 (57544) - http://www.bohemiancoding.com/sketch --><title>010 Panning</title><desc>Created with Sketch.</desc><defs/><g id="Page-1" stroke="none" stroke-width="1" fill="none" fill-rule="evenodd"><g id="010-Panning" transform="translate(-1.000000, 0.000000)" fill-rule="nonzero"><path d="M54,19.51 L54,27 C54,28.44 52.39,29.77 49.63,30.88 C54.19,29.62 57,27.9 57,26 L57,18.18 C56.0806646,18.7866127 55.0668291,19.2360798 54,19.51 Z" id="Shape" fill="#00838F"/><path d="M53.04,19.74 C53.37,19.67 53.69,19.6 54,19.51 L54,19.18 C53.6942196,19.3900409 53.3733472,19.5772164 53.04,19.74 Z" id="Shape" fill="#0377BC"/><path d="M54,19.51 L54,27 C54,28.44 52.39,29.77 49.63,30.88 C43.5368427,32.3839681 37.2752827,33.096502 31,33 C16.64,33 5,29.87 5,26 L5,18.18 C9.74,21.45 19.6,20 31,20 C39.82,20 47.72,20.87 53.04,19.74 C53.37,19.67 53.69,19.6 54,19.51 Z" id="Shape" fill="#00BCD4"/><path d="M55,17.75 L53.7,16.79 C54.1703252,17.0566142 54.6068054,17.3789381 55,17.75 Z" id="Shape" fill="#00695C"/><path d="M52.62,16 L53.7,16.79 C52.8202234,16.302513 51.911916,15.8683954 50.98,15.49 C48.9027404,14.6347188 46.7631831,13.9393627 44.58,13.41 L39.48,12.66 L36.27,12.19 C34.58,12.07 32.82,12 31,12 C30.52,12 30.04,12 29.57,12.02 C27.75,12.05 25.98,12.15 24.31,12.32 L18.6,13.16 C14.23,14.05 10.92,17.07 9.39,18.67 L9.38,16.04 L9.38,16 C4.79,14.41 2,12.3 2,10 C2,5.19 14.17,1.26 29.49,1.01 L29.51,1.01 C30,1 30.5,1 31,1 C47.02,1 60,5.03 60,10 C60,12.3 57.21,14.41 52.62,16 Z" id="Shape" fill="#00838F"/><path d="M52,17.75 L50.7,16.79 C51.1703252,17.0566142 51.6068054,17.3789381 52,17.75 Z" id="Shape" fill="#00695C"/><path d="M50.98,15.49 C50.55,15.66 50.09,15.84 49.62,16 L50.7,16.79 C47.8136559,15.2855983 44.7496317,14.150028 41.58,13.41 L36.48,12.66 L33.27,12.19 C32.07,12.1 30.84,12.04 29.57,12.02 C29.05,12.01 28.53,12 28,12 C25.67,12 23.42,12.11 21.31,12.32 L15.6,13.16 C13.3449113,13.6651594 11.2240709,14.6471563 9.38,16.04 L9.38,16 C4.79,14.41 2,12.3 2,10 C2,5.19 14.17,1.26 29.49,1.01 L29.51,1.01 C44.83,1.26 57,5.19 57,10 C57,12.06 54.76,13.97 50.98,15.49 Z" id="Shape" fill="#00BCD4"/><path d="M52.61,16 C50.48,16.74 48.01,17.68 45.26,18.54 C45.22,18.56 45.17,18.57 45.13,18.59 C40.6872251,20.0567202 36.047978,20.8422903 31.37,20.92 C22.78,20.92 14.7,17.84 9.39,16 C10.4493551,15.0129503 11.6978381,14.2509334 13.06,13.76 C14.8535455,13.057469 16.7080677,12.5218669 18.6,12.16 L24.31,11.32 C26.42,11.11 28.67,11 31,11 C32.82,11 34.58,11.07 36.27,11.19 L39.48,11.66 L44.58,12.41 C48.37,13.3 51.22,14.54 52.61,16 Z" id="Shape" fill="#37474F"/><path d="M49.61,17 C48.28,17.46 46.83,18 45.26,18.54 C45.22,18.56 45.17,18.57 45.13,18.59 C40.6872251,20.0567202 36.047978,20.8422903 31.37,20.92 C22.78,20.92 14.7,17.84 9.39,16 C10.4493551,15.0129503 11.6978381,14.2509334 13.06,13.76 C13.86,13.54 14.71,13.34 15.6,13.16 L21.31,12.32 C23.42,12.11 25.67,12 28,12 C29.82,12 31.58,12.07 33.27,12.19 L36.48,12.66 L41.58,13.41 C45.37,14.3 48.22,15.54 49.61,17 Z" id="Shape" fill="#607D8B"/><path d="M60,10 L60,14 C60,15.43 58.92,16.87 57,18.18 C56.4156801,18.5848107 55.8042407,18.9490014 55.17,19.27 C56.2189872,18.4913517 56.884968,17.3013205 57,16 L57,13.99 C58.92,12.79 60,11.43 60,10 Z" id="Shape" fill="#0377BC"/><path d="M57,13.99 L57,16 C56.884968,17.3013205 56.2189872,18.4913517 55.17,19.27 C49.98,22 41.09,24 31,24 C19.6,24 9.74,21.45 5,18.18 C4.35457422,17.7493392 3.7606908,17.2460481 3.23,16.68 C2.49656894,15.9738389 2.05720232,15.0165198 2,14 L2,10 C2,12.3 4.79,14.41 9.38,16 L9.39,16 C14.7,17.84 22.41,19 31,19 C39.59,19 47.3,17.84 52.61,16 L52.62,16 C53.6363765,15.6568369 54.6286017,15.2459153 55.59,14.77 C56.0732965,14.534797 56.5439412,14.2744403 57,13.99 Z" id="Shape" fill="#02A9F4"/><path d="M57,12 L57,13.99 C56.5439412,14.2744403 56.0732965,14.534797 55.59,14.77 C56.4235289,14.0819384 56.9341394,13.0788242 57,12 Z" id="Shape" fill="#00838F"/><path d="M58.61,59 L57.33,59 L57,58 L55.3,54.6 C55.1025238,54.2125187 54.7874813,53.8974762 54.4,53.7 L51.6,52.3 C51.2125187,52.1025238 50.8974762,51.7874813 50.7,51.4 L49.37,48.74 C49.130193,48.2668489 48.7133202,47.9074758 48.21,47.74 L37.79,44.26 C37.2859077,44.0898264 36.7345643,44.1294655 36.26,44.37 L29.89,47.55 C29.3296986,47.8299925 28.6703014,47.8299925 28.11,47.55 L21.78,44.39 C21.2816195,44.1396247 20.7008699,44.1105872 20.18,44.31 L14.78,46.33 L14.81,46.14 C14.9285955,45.4347146 15.4118062,44.8449694 16.08,44.59 L22.18,42.31 C22.7008699,42.1105872 23.2816195,42.1396247 23.78,42.39 L30.11,45.55 C30.6703014,45.8299925 31.3296986,45.8299925 31.89,45.55 L38.26,42.37 C38.7345643,42.1294655 39.2859077,42.0898264 39.79,42.26 L50.21,45.74 C50.7133202,45.9074758 51.130193,46.2668489 51.37,46.74 L52.7,49.4 C52.8974762,49.7874813 53.2125187,50.1025238 53.6,50.3 L56.4,51.7 C56.7874813,51.8974762 57.1025238,52.2125187 57.3,52.6 L59,56 L59.56,57.68 C59.6632336,57.9856381 59.6126799,58.3223061 59.4242345,58.5841461 C59.2357891,58.845986 58.9326006,59.0008335 58.61,59 Z" id="Shape" fill="#624421"/><path d="M57.33,59.0000013 L4.14,59 C3.75173191,59.0006314 3.39819413,58.776459 3.23318019,58.4250008 C3.06816626,58.0735425 3.12150758,57.6583354 3.37,57.36 L5.43,54.89 L6.61,53.47 C6.86381285,53.1617823 7.20574565,52.9384792 7.59,52.83 L12.25,51.5 L12.78,51.35 C13.5257089,51.1376616 14.0824086,50.5147808 14.21,49.75 L14.78,46.33 L20.18,44.31 C20.7008699,44.1105872 21.2816195,44.1396247 21.78,44.39 L28.11,47.55 C28.6703014,47.8299925 29.3296986,47.8299925 29.89,47.55 L36.26,44.37 C36.7345643,44.1294655 37.2859077,44.0898264 37.79,44.26 L48.21,47.74 C48.7133202,47.9074758 49.130193,48.2668489 49.37,48.74 L50.7,51.4 C50.8974762,51.7874813 51.2125187,52.1025238 51.6,52.3 L54.4,53.7 C54.7874813,53.8974762 55.1025238,54.2125187 55.3,54.6 L57,58 L57.33,59.0000013 Z" id="Shape" fill="#825A2C"/><path d="M50.05,40 L49,40 C48.8413987,40.0003954 48.6834154,39.9802274 48.53,39.94 C47.6325387,39.7252679 46.9996588,38.9227928 47,38 L47,37 C47.0021224,36.1584987 47.5292299,35.4077699 48.32,35.12 C48.5374761,35.0389544 48.7679196,34.9982879 49,35 L49.65,35 C50.4659584,35.0032924 51.1980996,35.5019399 51.5,36.26 L51.9,37.26 C52.1448325,37.8747335 52.0697692,38.5707711 51.6995,39.1191697 C51.3292309,39.6675684 50.7116896,39.9973343 50.05,40 Z" id="Shape" fill="#783E22"/><path d="M32.89,39.8 L32.53,40.55 C32.1618583,41.2914567 31.2659169,41.5990186 30.52,41.24 L30.13,41.05 L29.24,40.61 C28.8087252,40.3992155 28.5043831,39.9947528 28.4212996,39.5219683 C28.3382162,39.0491837 28.4864282,38.5651926 28.82,38.22 L29.33,37.69 C29.3849283,37.63421 29.4452195,37.5839674 29.51,37.54 C29.9122075,37.2403386 30.4375733,37.1615337 30.91,37.33 L32.05,37.73 C32.4511269,37.874288 32.7719151,38.1824336 32.9322067,38.5774379 C33.0924983,38.9724421 33.0771511,39.4169905 32.89,39.8 Z" id="Shape" fill="#783E22"/><path d="M16.46,39.51 L15.07,39.84 C14.6032172,39.9502573 14.1118544,39.8306464 13.7479731,39.5181832 C13.3840919,39.2057199 13.1915748,38.7380862 13.23,38.26 L13.29,37.53 C13.3402801,36.9437639 13.7267239,36.4402159 14.28,36.24 L14.83,36.05 L15.42,35.84 C15.8202135,35.6947556 16.2634287,35.727531 16.6379244,35.9300643 C17.0124201,36.1325977 17.282469,36.4855673 17.38,36.9 L17.57,37.71 C17.6624286,38.0959495 17.5972841,38.50282 17.3889753,38.8406181 C17.1806665,39.1784161 16.8463602,39.4193036 16.46,39.51 Z" id="Shape" fill="#783E22"/><path d="M48.53,39.94 C47.6325387,39.7252679 46.9996588,38.9227928 47,38 L47,37 C47.0021224,36.1584987 47.5292299,35.4077699 48.32,35.12 C48.8595369,35.3117138 49.2898009,35.7273926 49.5,36.26 L49.9,37.26 C50.1159112,37.7954991 50.0889763,38.3983158 49.8261669,38.9124249 C49.5633574,39.4265339 49.0905062,39.8014009 48.53,39.94 Z" id="Shape" fill="#A0522D"/><path d="M30.89,39.8 L30.53,40.55 C30.4335531,40.7430958 30.2972149,40.9135186 30.13,41.05 L29.24,40.61 C28.8087252,40.3992155 28.5043831,39.9947528 28.4212996,39.5219683 C28.3382162,39.0491837 28.4864282,38.5651926 28.82,38.22 L29.33,37.69 C29.3849283,37.63421 29.4452195,37.5839674 29.51,37.54 L30.05,37.73 C30.4511269,37.874288 30.7719151,38.1824336 30.9322067,38.5774379 C31.0924983,38.9724421 31.0771511,39.4169905 30.89,39.8 Z" id="Shape" fill="#A0522D"/><path d="M14.46,39.51 L13.91,39.64 C13.4441514,39.3424175 13.1821502,38.8107093 13.23,38.26 L13.29,37.53 C13.3402801,36.9437639 13.7267239,36.4402159 14.28,36.24 L14.83,36.05 C15.1107169,36.2569112 15.306282,36.5591483 15.38,36.9 L15.57,37.71 C15.6624286,38.0959495 15.5972841,38.50282 15.3889753,38.8406181 C15.1806665,39.1784161 14.8463602,39.4193036 14.46,39.51 Z" id="Shape" fill="#A0522D"/><path d="M24.33,11.09 L24.22,12.14 C24.111203,13.1970315 23.1672657,13.966497 22.11,13.86 L21,13.74 L20.99,13.74 L20.28,13.67 C19.6659974,13.6022733 19.1210629,13.2458968 18.8128843,12.7105353 C18.5047057,12.1751737 18.4702054,11.5249679 18.72,10.96 L19.1,10.11 C19.388017,9.47028213 20.0007964,9.03750668 20.7,8.98 C20.7495443,8.97169786 20.7997921,8.96834802 20.85,8.97 L22.41,8.96 C22.9575714,8.95735313 23.480275,9.18839042 23.8469016,9.59511683 C24.2135283,10.0018432 24.3892656,10.5456389 24.33,11.09 Z" id="Shape" fill="#FEC108"/><path d="M44.58,12.41 C44.1655827,13.129926 43.4271592,13.6035613 42.6,13.68 L40.19,13.93 C40.100437,13.9416341 40.0102997,13.9483109 39.92,13.95 L39.77,13.77 L39.76,13.77 L37.3,10.87 L37.25,10.43 C37.1955391,9.72045031 37.4438643,9.02098798 37.9335528,8.50462383 C38.4232413,7.98825969 39.1085613,7.70321679 39.82,7.72 L41.87,7.72 C42.8545449,7.70982759 43.755637,8.27154731 44.18,9.16 L44.68,10.24 C45.0054724,10.9357802 44.9680843,11.7471026 44.58,12.41 Z" id="Shape" fill="#FEC108"/><path d="M39.96,13.75 C39.9563478,13.8182426 39.9428759,13.8856022 39.92,13.95 C39.6995508,14.7114383 39.0691197,15.2838542 38.29,15.43 L36.35,15.85 C35.8846856,15.9564114 35.3975131,15.9108486 34.96,15.72 C34.2375394,15.4375427 33.8003604,14.6992876 33.9,13.93 L34.03,13.04 C34.1708871,12.2770086 34.7331871,11.6604176 35.48,11.45 L35.73,11.37 L36.75,11.04 L37.07,10.93 C37.1439389,10.9007135 37.2211771,10.8805645 37.3,10.87 C38.3375534,10.5782237 39.4166868,11.1757603 39.72,12.21 L39.94,13.2 C39.9815708,13.3803948 39.9883588,13.5670623 39.96,13.75 Z" id="Shape" fill="#FEC108"/><path d="M22.33,11.09 L22.22,12.14 C22.1407043,12.8579854 21.6713866,13.4734839 21,13.74 L20.99,13.74 L20.28,13.67 C19.6659974,13.6022733 19.1210629,13.2458968 18.8128843,12.7105353 C18.5047057,12.1751737 18.4702054,11.5249679 18.72,10.96 L19.1,10.11 C19.388017,9.47028213 20.0007964,9.03750668 20.7,8.98 C21.7227234,9.12990538 22.4432162,10.0625679 22.33,11.09 Z" id="Shape" fill="#FFDC00"/><path d="M42.58,12.41 C42.1655827,13.129926 41.4271592,13.6035613 40.6,13.68 L39.96,13.75 L39.77,13.77 L39.76,13.77 L38.5,11.413 L37.25,10.43 C37.1955391,9.72045031 37.4438643,9.02098798 37.9335528,8.50462383 C38.4232413,7.98825969 39.1085613,7.70321679 39.82,7.72 L39.87,7.72 C40.8545449,7.70982759 41.755637,8.27154731 42.18,9.16 L42.68,10.24 C43.0054724,10.9357802 42.9680843,11.7471026 42.58,12.41 Z" id="Shape" fill="#FFDC00"/><path d="M37.92,13.95 C37.6995508,14.7114383 37.0691197,15.2838542 36.29,15.43 L34.96,15.72 C34.2375394,15.4375427 33.8003604,14.6992876 33.9,13.93 L34.03,13.04 C34.1708871,12.2770086 34.7331871,11.6604176 35.48,11.45 L35.73,11.37 L35.3,10.87 C35.7886605,10.761256 36.299744,10.8211762 36.75,11.04 C37.2412403,11.2532279 37.6014902,11.6877561 37.72,12.21 L37.94,13.2 C37.9935297,13.4479907 37.9866704,13.7052147 37.92,13.95 Z" id="Shape" fill="#FFDC00"/><path d="M31,20 C16.457,20 1,16.5 1,10 C1,3.5 16.457,0 31,0 C45.543,0 61,3.505 61,10 C61,16.495 45.543,20 31,20 Z M31,2 C14.5,2 3,6.216 3,10 C3,13.784 14.5,18 31,18 C47.5,18 59,13.784 59,10 C59,6.216 47.5,2 31,2 Z" id="Shape" fill="#000000"/><path d="M60,11 C59.4477153,11 59,10.5522847 59,10 C59,6.216 47.5,2 31,2 C14.5,2 3,6.216 3,10 C3,10.5522847 2.55228475,11 2,11 C1.44771525,11 1,10.5522847 1,10 C1,3.505 16.457,0 31,0 C45.543,0 61,3.505 61,10 C61,10.5522847 60.5522847,11 60,11 Z" id="Shape" fill="#000000"/><path d="M31,25 C14.738,25 1,19.962 1,14 C1,13.4477153 1.44771525,13 2,13 C2.55228475,13 3,13.4477153 3,14 C3,18.077 15.49,23 31,23 C46.51,23 59,18.077 59,14 C59,13.4477153 59.4477153,13 60,13 C60.5522847,13 61,13.4477153 61,14 C61,19.962 47.262,25 31,25 Z" id="Shape" fill="#000000"/><path d="M24.309,12.32 C23.7567153,12.3476142 23.2866143,11.9222847 23.259,11.37 C23.2313858,10.8177153 23.6567153,10.3476142 24.209,10.32 C28.2414586,9.93576026 32.2990858,9.8912702 36.339,10.187 C36.8912847,10.2264884 37.3069883,10.7062153 37.2675,11.2585 C37.2280116,11.8107847 36.7482847,12.2264883 36.196,12.187 C32.2694019,11.8983284 28.3254687,11.9408119 24.406,12.314 C24.375,12.318 24.342,12.32 24.309,12.32 Z" id="Shape" fill="#000000"/><path d="M52.62,17 C52.3474139,17.0000279 52.0866296,16.8887793 51.898,16.692 C50.67,15.411 47.99,14.236 44.353,13.384 C43.997879,13.309681 43.7108693,13.048846 43.6030324,12.702428 C43.4951955,12.35601 43.58345,11.9783586 43.8336447,11.71561 C44.0838395,11.4528615 44.4567215,11.3462385 44.808,11.437 C47.646,12.101 51.429,13.312 53.342,15.308 C53.6192401,15.5972181 53.6971048,16.0239855 53.539865,16.3924755 C53.3826252,16.7609654 53.020636,17.0000411 52.62,17 Z" id="Shape" fill="#000000"/><path d="M9.38,17 C8.97911941,17.000025 8.61696829,16.7606465 8.45989546,16.3918195 C8.30282264,16.0229924 8.38118975,15.5960099 8.659,15.307 C10.783,13.1 15.129,11.845 18.4,11.18 C18.7501203,11.1085469 19.1117646,11.2293084 19.3487049,11.4967949 C19.5856453,11.7642814 19.6618848,12.1378553 19.5487049,12.4767949 C19.435525,12.8157345 19.1501203,13.0685469 18.8,13.14 C14.63,13.987 11.46,15.282 10.1,16.693 C9.9116817,16.8889104 9.65174364,16.9997451 9.38,17 Z" id="Shape" fill="#000000"/><path d="M60,15 C59.4477153,15 59,14.5522847 59,14 L59,10 C59,9.44771525 59.4477153,9 60,9 C60.5522847,9 61,9.44771525 61,10 L61,14 C61,14.5522847 60.5522847,15 60,15 Z" id="Shape" fill="#000000"/><path d="M2,15 C1.44771525,15 1,14.5522847 1,14 L1,10 C1,9.44771525 1.44771525,9 2,9 C2.55228475,9 3,9.44771525 3,10 L3,14 C3,14.5522847 2.55228475,15 2,15 Z" id="Shape" fill="#000000"/><path d="M57,27 C56.4477153,27 56,26.5522847 56,26 L56,18.18 C56,17.6277153 56.4477153,17.18 57,17.18 C57.5522847,17.18 58,17.6277153 58,18.18 L58,26 C58,26.5522847 57.5522847,27 57,27 Z" id="Shape" fill="#000000"/><path d="M5,27 C4.44771525,27 4,26.5522847 4,26 L4,18.18 C4,17.6277153 4.44771525,17.18 5,17.18 C5.55228475,17.18 6,17.6277153 6,18.18 L6,26 C6,26.5522847 5.55228475,27 5,27 Z" id="Shape" fill="#000000"/><path d="M31,34 C17.583,34 4,31.252 4,26 C4,25.4477153 4.44771525,25 5,25 C5.55228475,25 6,25.4477153 6,26 C6,28.5 15.511,32 31,32 C46.489,32 56,28.5 56,26 C56,25.4477153 56.4477153,25 57,25 C57.5522847,25 58,25.4477153 58,26 C58,31.252 44.417,34 31,34 Z" id="Shape" fill="#000000"/><path d="M58.612,60 L4.135,60 C3.35936773,59.9993216 2.65406674,59.5502455 2.32530106,58.8477364 C1.99653538,58.1452273 2.10359486,57.3159764 2.6,56.72 L5.838,52.833 C6.2232684,52.3697942 6.73948474,52.033783 7.319,51.869 L12.511,50.386 C12.8820816,50.2778924 13.1586712,49.9671176 13.223,49.586 L13.823,45.972 C13.9994819,44.917312 14.7229823,44.0357839 15.723,43.657 L21.823,41.368 C22.6058128,41.075071 23.4751636,41.1207119 24.223,41.494 L30.548,44.656 C30.8294108,44.7966214 31.1605892,44.7966214 31.442,44.656 L37.807,41.474 C38.518211,41.1157351 39.3432302,41.0570367 40.098,41.311 L50.53,44.789 C51.2851762,45.0377087 51.9097618,45.5776963 52.265,46.289 L53.6,48.957 C53.6967458,49.1504146 53.8535854,49.3072542 54.047,49.404 L56.854,50.804 C57.4336771,51.0954963 57.9039359,51.5661057 58.195,52.146 L59.895,55.546 C59.9161657,55.5881681 59.93389,55.6319773 59.948,55.677 L60.51,57.36 C60.7163526,57.9709414 60.6154735,58.6438968 60.2390507,59.1674774 C59.862628,59.691058 59.2568486,60.0010207 58.612,60 Z M22.885,43.179 C22.7655063,43.1789199 22.6469656,43.2002573 22.535,43.242 L16.435,45.531 C16.1002866,45.6562054 15.8578279,45.9505107 15.799,46.303 L15.199,49.917 C15.0058592,51.0582315 14.1760401,51.9879398 13.064,52.309 L7.867,53.792 C7.67419825,53.847148 7.50243039,53.9589888 7.374,54.113 L4.136,58 L4.131,58.006 L58.612,58 L58.074,56.384 L56.4,53.043 C56.3032542,52.8495854 56.1464146,52.6927458 55.953,52.596 L53.146,51.196 C52.5663229,50.9045037 52.0960641,50.4338943 51.805,49.854 L50.473,47.191 C50.3538993,46.9541796 50.1456421,46.7743375 49.894,46.691 L39.47,43.211 C39.2184023,43.125771 38.9431082,43.1452289 38.706,43.265 L32.342,46.447 C31.4966317,46.8670269 30.5033683,46.8670269 29.658,46.447 L23.333,43.285 C23.1940709,43.2149537 23.0405881,43.1786386 22.885,43.179 Z" id="Shape" fill="#000000"/><path d="M20,54 C19.6535599,53.999815 19.3318963,53.8203322 19.1498055,53.5256057 C18.9677146,53.2308792 18.9511412,52.8629025 19.106,52.553 L19.622,51.522 C20.698234,49.3700351 23.1545584,48.2897734 25.468,48.951 L29.275,50.039 C29.6306831,50.1261488 29.9102817,50.4007449 30.0038372,50.7547968 C30.0973926,51.1088488 29.9899391,51.4857203 29.7237353,51.7371978 C29.4575315,51.9886754 29.0751611,52.074531 28.727,51.961 L24.919,50.874 C23.5309607,50.4769525 22.0569722,51.1248687 21.411,52.416 L20.9,53.447 C20.7297741,53.7876694 20.3808256,54.0020788 20,54 Z" id="Shape" fill="#000000"/><path d="M46,51.912 C45.8243701,51.9116883 45.6519198,51.8651268 45.5,51.777 L42.565,50.077 C41.6527933,49.5507879 40.5320418,49.5390344 39.609,50.046 L37.984,50.946 C37.6710182,51.1236099 37.286742,51.1193545 36.97777,50.9348574 C36.6687981,50.7503602 36.4827859,50.4140779 36.4906959,50.0542998 C36.4986059,49.6945216 36.6992179,49.3667396 37.016,49.196 L38.642,48.296 C40.1801043,47.4514507 42.0473556,47.4704038 43.568,48.346 L46.504,50.046 C46.8959413,50.2723139 47.0870208,50.7336562 46.9698809,51.1708223 C46.8527411,51.6079884 46.4565881,51.9119801 46.004,51.912 L46,51.912 Z" id="Shape" fill="#000000"/><path d="M37.085,56 C36.8870237,55.9999461 36.6935183,55.9411288 36.529,55.831 L36.252,55.645 C35.1281526,54.885807 33.670564,54.8311329 32.493,55.504 C32.1815193,55.6933219 31.7916986,55.6981673 31.4756083,55.516646 C31.1595181,55.3351248 30.9672331,54.9959933 30.9737644,54.6315481 C30.9802957,54.2671028 31.1846086,53.9350789 31.507,53.765 C33.3418617,52.7147853 35.6142558,52.7993359 37.366,53.983 L37.643,54.169 C38.0091708,54.4141138 38.1717486,54.8700171 38.0432961,55.2915165 C37.9148435,55.7130159 37.5256373,56.0007622 37.085,56 Z" id="Shape" fill="#000000"/><path d="M50.046,41 L49,41 C47.3431458,41 46,39.6568542 46,38 L46,37 C46,35.3431458 47.3431458,34 49,34 L49.646,34 C50.8740719,33.9961717 51.9793398,34.7443897 52.432,35.886 L52.832,36.886 C53.2016725,37.8103468 53.088726,38.8578709 52.5305104,39.6821706 C51.9722948,40.5064704 51.0415273,41.0001663 50.046,41 Z M49,36 C48.4477153,36 48,36.4477153 48,37 L48,38 C48,38.5522847 48.4477153,39 49,39 L50.046,39 C50.3778143,39.0001218 50.6880806,38.8356463 50.8742135,38.560955 C51.0603464,38.2862637 51.0981031,37.9371337 50.975,37.629 L50.575,36.629 C50.4245578,36.2479118 50.0557044,35.9981715 49.646,36 L49,36 Z" id="Shape" fill="#000000"/><path d="M31.178,42.389 C30.7986253,42.3888301 30.4243507,42.3015906 30.084,42.134 L28.8,41.509 C28.0790733,41.1573843 27.5706375,40.4812056 27.433,39.691 C27.2899746,38.9014361 27.5398885,38.0916405 28.103,37.52 L28.609,37 C29.2917293,36.2962191 30.3228463,36.0565244 31.246,36.387 L32.385,36.795 C33.0532747,37.0355161 33.587706,37.5489236 33.8548342,38.207013 C34.1219624,38.8651023 34.0965707,39.6057502 33.785,40.244 L33.425,40.985 C33.0045071,41.8445404 32.1318808,42.3902227 31.175,42.392 L31.178,42.389 Z M30.4,38.238 C30.2643494,38.2377346 30.1344128,38.2925967 30.04,38.39 L29.533,38.913 C29.4203243,39.0279255 29.3698596,39.1900637 29.3974113,39.3486342 C29.4249629,39.5072047 29.5271618,39.6428176 29.672,39.713 L30.956,40.339 C31.0749214,40.3982429 31.2128295,40.4065462 31.338,40.362 C31.4636063,40.3188143 31.5668678,40.2274261 31.625,40.108 L31.985,39.367 C32.0478272,39.2393299 32.0532828,39.0909388 32,38.959 C31.9476847,38.8267101 31.840354,38.7237602 31.706,38.677 L30.567,38.269 C30.5134726,38.2493492 30.4570138,38.2388689 30.4,38.238 Z" id="Shape" fill="#000000"/><path d="M14.713,40.883 C14.014845,40.8802092 13.3496629,40.5856075 12.8784149,40.0704827 C12.4071669,39.5553579 12.1727904,38.8666453 12.232,38.171 L12.294,37.444 C12.3765582,36.4675171 13.0220223,35.6293129 13.945,35.3 L15.084,34.894 C15.7532641,34.6557147 16.4923001,34.7134182 17.1164685,35.0526941 C17.7406369,35.39197 18.1909855,35.9807739 18.355,36.672 L18.547,37.472 C18.6998347,38.1172763 18.5900394,38.7968379 18.2417735,39.3611523 C17.8935076,39.9254668 17.3353072,40.3282959 16.69,40.481 L15.3,40.811 C15.107856,40.8580571 14.9108209,40.882225 14.713,40.883 Z M15.924,36.748 C15.8667528,36.7479779 15.8099269,36.7577871 15.756,36.777 L14.617,37.184 C14.4320292,37.2496393 14.3025694,37.4174286 14.286,37.613 L14.225,38.34 C14.211671,38.4997331 14.2757307,38.6561733 14.3972628,38.760683 C14.5187949,38.8651927 14.6830646,38.9051009 14.839,38.868 L16.229,38.538 C16.497129,38.4746482 16.6634848,38.2063323 16.601,37.938 L16.41,37.138 C16.3571237,36.9121933 16.1559147,36.7523853 15.924,36.752 L15.924,36.748 Z" id="Shape" fill="#000000"/><path d="M22.308,14.867 C22.2051198,14.8672278 22.1023028,14.8618866 22,14.851 L20.174,14.66 C19.2405865,14.5624881 18.4105368,14.0233064 17.9419963,13.2101403 C17.4734558,12.3969741 17.4232527,11.4084505 17.807,10.552 L18.189,9.697 C18.6606517,8.65124852 19.6978399,7.97567038 20.845,7.967 L22.4,7.958 L22.416,7.958 C23.2452687,7.95773367 24.0357029,8.30936037 24.590781,8.925457 C25.1458591,9.54155362 25.4134413,10.3642487 25.327,11.189 L25.217,12.245 C25.0587483,13.7334012 23.8047867,14.8636477 22.308,14.867 Z M22.208,12.862 C22.4530651,12.8891235 22.6987953,12.8170691 22.8904077,12.6619006 C23.0820202,12.5067321 23.2035848,12.2813497 23.228,12.036 L23.338,10.981 C23.3652089,10.7196785 23.2802501,10.4590853 23.104248,10.2640147 C22.9282459,10.0689442 22.6777341,9.95772102 22.415,9.958 L20.861,9.967 C20.4976688,9.96977644 20.1693801,10.1843365 20.021,10.516 L19.639,11.37 C19.5179083,11.6410423 19.5339519,11.953684 19.6821521,12.2109074 C19.8303523,12.4681307 20.0927801,12.6388172 20.388,12.67 L22.208,12.862 Z" id="Shape" fill="#000000"/><path d="M39.92,14.95 C39.3677153,14.95 38.92,14.5022847 38.92,13.95 C38.92,13.3977153 39.3677153,12.95 39.92,12.95 C39.9695057,12.9485268 40.0189036,12.9445215 40.068,12.938 L42.496,12.686 C43.0012262,12.6411068 43.45353,12.3545981 43.71,11.917 C43.9398223,11.5340096 43.9627201,11.0614146 43.771,10.658 L43.271,9.58 C43.0093836,9.04719641 42.4645204,8.71249474 41.871,8.72 L39.82,8.72 C39.3586581,8.71736212 38.9176998,8.90987272 38.606,9.25 C38.3367614,9.54060396 38.2052881,9.9328388 38.245,10.327 L38.294,10.758 C38.3558559,11.306971 37.960971,11.8021441 37.412,11.864 C36.863029,11.9258559 36.3678559,11.530971 36.306,10.982 L36.257,10.542 C36.1591019,9.58188089 36.4731154,8.62530289 37.121,7.91 C37.8123731,7.14957409 38.7932662,6.71725453 39.821,6.72 L41.871,6.72 C43.2432916,6.71328341 44.4961186,7.49941673 45.087,8.738 L45.587,9.82 C46.0516989,10.8108246 45.9985865,11.9669552 45.445,12.911 C44.8689458,13.9081569 43.8463533,14.5652983 42.7,14.675 L40.294,14.925 C40.1698564,14.9398695 40.0450181,14.9482143 39.92,14.95 Z" id="Shape" fill="#000000"/><path d="M35.838,16.906 C35.0621037,16.9140237 34.3118949,16.6282299 33.738,16.106 C33.0951605,15.5199907 32.7862244,14.6524202 32.914,13.792 L33.043,12.899 C33.2414334,11.7602926 34.065925,10.831288 35.173,10.499 L36.773,9.985 C37.6399224,9.69903912 38.5871409,9.79085761 39.383,10.238 C40.0528061,10.6110793 40.531837,11.2519695 40.7,12 L40.915,12.982 C41.1863512,14.5914628 40.1076589,16.1181585 38.5,16.4 L36.56,16.823 C36.3230197,16.8765581 36.0809517,16.9043859 35.838,16.906 Z M37.8,11.819 C37.6577255,11.8187505 37.5163085,11.8410262 37.381,11.885 L35.781,12.398 C35.4019247,12.4983083 35.1089682,12.7993384 35.019,13.181 L34.889,14.074 C34.8555436,14.2858766 34.9347137,14.4999008 35.098,14.639 C35.3849405,14.880414 35.7711537,14.9676474 36.134,14.873 L38.074,14.45 C38.648,14.324 39.054,13.85 38.958,13.41 L38.744,12.428 C38.6938499,12.2295605 38.5619404,12.0616756 38.381,11.966 C38.2032111,11.8678165 38.0030901,11.8171835 37.8,11.819 Z" id="Shape" fill="#000000"/><circle id="Oval" fill="#000000" cx="41" cy="37" r="1"/><circle id="Oval" fill="#000000" cx="55" cy="42" r="1"/><circle id="Oval" fill="#000000" cx="9" cy="42" r="1"/><circle id="Oval" fill="#000000" cx="23" cy="37" r="1"/><circle id="Oval" fill="#000000" cx="22" cy="29" r="1"/><circle id="Oval" fill="#000000" cx="28" cy="15" r="1"/><path d="M5,32 L2,33" id="Shape" fill="#000000"/><path d="M2,34 C1.5092173,34.0003557 1.09071256,33.6445013 1.01216548,33.1600447 C0.933618392,32.6755882 1.21824697,32.2057317 1.684,32.051 L4.684,31.051 C5.20867051,30.876478 5.77547799,31.1603295 5.94999997,31.685 C6.12452195,32.2096705 5.8406705,32.776478 5.316,32.951 L2.316,33.951 C2.21397702,33.9841782 2.10727981,34.000723 2,34 Z" id="Shape" fill="#000000"/><path d="M7,35 L5,37" id="Shape" fill="#000000"/><path d="M5,38 C4.5956041,37.9999137 4.23106595,37.7562725 4.07632202,37.3826546 C3.92157809,37.0090366 4.00709208,36.5789943 4.293,36.293 L6.293,34.293 C6.68537889,33.9140278 7.30908478,33.9194476 7.69481858,34.3051814 C8.08055237,34.6909152 8.08597221,35.3146211 7.707,35.707 L5.707,37.707 C5.51950727,37.8945494 5.26519481,37.9999434 5,38 Z" id="Shape" fill="#000000"/><path d="M57,32 L60,33" id="Shape" fill="#000000"/><path d="M60,34 C59.8926115,34.0000777 59.7859116,33.9828571 59.684,33.949 L56.684,32.949 C56.3445977,32.8361041 56.0912063,32.550715 56.0192759,32.200336 C55.9473455,31.849957 56.067804,31.487819 56.3352759,31.250336 C56.6027478,31.0128529 56.9765977,30.9361041 57.316,31.049 L60.316,32.049 C60.7850221,32.2014496 61.0728689,32.6730766 60.9940177,33.1599083 C60.9151664,33.64674 60.4931644,34.003394 60,34 Z" id="Shape" fill="#000000"/><path d="M55,35 L57,37" id="Shape" fill="#000000"/><path d="M57,38 C56.7348052,37.9999434 56.4804927,37.8945494 56.293,37.707 L54.293,35.707 C53.9140278,35.3146211 53.9194476,34.6909152 54.3051814,34.3051814 C54.6909152,33.9194476 55.3146211,33.9140278 55.707,34.293 L57.707,36.293 C57.9929079,36.5789943 58.0784219,37.0090366 57.923678,37.3826546 C57.7689341,37.7562725 57.4043959,37.9999137 57,38 Z" id="Shape" fill="#000000"/><path d="M8,25 C11.2207631,26.342723 14.5719924,27.3480918 18,28" id="Shape" fill="#000000"/><path d="M18,29 C17.9446925,29.0002649 17.8894722,28.9955796 17.835,28.986 C14.3269915,28.3247903 10.8981675,27.2968134 7.605,25.919 C7.09745033,25.7008475 6.86284756,25.1125497 7.08100003,24.605 C7.2991525,24.0974503 7.88745032,23.8628475 8.395,24.081 C11.5423948,25.3903623 14.8158851,26.3731801 18.164,27.014 C18.6760622,27.1005846 19.0366242,27.5647324 18.9938844,28.0823016 C18.9511445,28.5998709 18.519329,28.9985857 18,29 Z" id="Shape" fill="#000000"/></g></g></svg>
